<?xml version="1.0" encoding="UTF-8" standalone="no"?>
<!DOCTYPE svg PUBLIC "-//W3C//DTD SVG 1.1//EN"
 "http://www.w3.org/Graphics/SVG/1.1/DTD/svg11.dtd">
<!-- Generated by graphviz version 2.43.0 (0)
 -->
<!-- Title: AwaitDependencies Pages: 1 -->
<svg width="468pt" height="259pt"
 viewBox="0.00 0.00 467.70 259.20" xmlns="http://www.w3.org/2000/svg" xmlns:xlink="http://www.w3.org/1999/xlink">
<g id="graph0" class="graph" transform="scale(1 1) rotate(0) translate(21.6 237.6)">
<title>AwaitDependencies</title>
<!-- Async -->
<g id="node1" class="node">
<title>Async</title>
<path fill="#ddf8f2" stroke="#39bda7" stroke-width="1.8" d="M220,-126C220,-126 178,-126 178,-126 172,-126 166,-120 166,-114 166,-114 166,-102 166,-102 166,-96 172,-90 178,-90 178,-90 220,-90 220,-90 226,-90 232,-96 232,-102 232,-102 232,-114 232,-114 232,-120 226,-126 220,-126"/>
<text text-anchor="middle" x="199" y="-104.6" font-family="Helvetica Neue" font-size="13.00" fill="#17233d">Async</text>
</g>
<!-- File -->
<g id="node3" class="node">
<title>File</title>
<path fill="#e9f1ff" stroke="#7895d5" stroke-width="1.4" d="M42,-36C42,-36 12,-36 12,-36 6,-36 0,-30 0,-24 0,-24 0,-12 0,-12 0,-6 6,0 12,0 12,0 42,0 42,0 48,0 54,-6 54,-12 54,-12 54,-24 54,-24 54,-30 48,-36 42,-36"/>
<text text-anchor="middle" x="27" y="-14.6" font-family="Helvetica Neue" font-size="13.00" fill="#17233d">File</text>
</g>
<!-- Async&#45;&gt;File -->
<g id="edge1" class="edge">
<title>Async&#45;&gt;File</title>
<path fill="none" stroke="#6b8fc9" stroke-width="1.6" d="M165.84,-90.03C135.74,-74.64 91.55,-52.03 61.15,-36.47"/>
<polygon fill="#6b8fc9" stroke="#6b8fc9" stroke-width="1.6" points="62.31,-34 54.12,-32.88 59.82,-38.86 62.31,-34"/>
</g>
<!-- FileSystem -->
<g id="node4" class="node">
<title>FileSystem</title>
<path fill="#e9f1ff" stroke="#7895d5" stroke-width="1.4" d="M176,-36C176,-36 102,-36 102,-36 96,-36 90,-30 90,-24 90,-24 90,-12 90,-12 90,-6 96,0 102,0 102,0 176,0 176,0 182,0 188,-6 188,-12 188,-12 188,-24 188,-24 188,-30 182,-36 176,-36"/>
<text text-anchor="middle" x="139" y="-14.6" font-family="Helvetica Neue" font-size="13.00" fill="#17233d">FileSystem</text>
</g>
<!-- Async&#45;&gt;FileSystem -->
<g id="edge2" class="edge">
<title>Async&#45;&gt;FileSystem</title>
<path fill="none" stroke="#6b8fc9" stroke-width="1.6" d="M187.15,-89.61C177.96,-76.15 165.15,-57.36 155.05,-42.54"/>
<polygon fill="#6b8fc9" stroke="#6b8fc9" stroke-width="1.6" points="157.27,-40.96 150.63,-36.05 152.76,-44.03 157.27,-40.96"/>
</g>
<!-- Socket -->
<g id="node5" class="node">
<title>Socket</title>
<path fill="#e9f1ff" stroke="#7895d5" stroke-width="1.4" d="M283.5,-36C283.5,-36 236.5,-36 236.5,-36 230.5,-36 224.5,-30 224.5,-24 224.5,-24 224.5,-12 224.5,-12 224.5,-6 230.5,0 236.5,0 236.5,0 283.5,0 283.5,0 289.5,0 295.5,-6 295.5,-12 295.5,-12 295.5,-24 295.5,-24 295.5,-30 289.5,-36 283.5,-36"/>
<text text-anchor="middle" x="260" y="-14.6" font-family="Helvetica Neue" font-size="13.00" fill="#17233d">Socket</text>
</g>
<!-- Async&#45;&gt;Socket -->
<g id="edge3" class="edge">
<title>Async&#45;&gt;Socket</title>
<path fill="none" stroke="#6b8fc9" stroke-width="1.6" d="M211.05,-89.61C220.39,-76.15 233.41,-57.36 243.68,-42.54"/>
<polygon fill="#6b8fc9" stroke="#6b8fc9" stroke-width="1.6" points="245.98,-44.02 248.18,-36.05 241.49,-40.91 245.98,-44.02"/>
</g>
<!-- Threading -->
<g id="node6" class="node">
<title>Threading</title>
<path fill="#e9f1ff" stroke="#7895d5" stroke-width="1.4" d="M412.5,-36C412.5,-36 343.5,-36 343.5,-36 337.5,-36 331.5,-30 331.5,-24 331.5,-24 331.5,-12 331.5,-12 331.5,-6 337.5,0 343.5,0 343.5,0 412.5,0 412.5,0 418.5,0 424.5,-6 424.5,-12 424.5,-12 424.5,-24 424.5,-24 424.5,-30 418.5,-36 412.5,-36"/>
<text text-anchor="middle" x="378" y="-14.6" font-family="Helvetica Neue" font-size="13.00" fill="#17233d">Threading</text>
</g>
<!-- Async&#45;&gt;Threading -->
<g id="edge4" class="edge">
<title>Async&#45;&gt;Threading</title>
<path fill="none" stroke="#6b8fc9" stroke-width="1.6" d="M232.25,-90.65C261.55,-76.25 304.37,-55.2 336.02,-39.64"/>
<polygon fill="#6b8fc9" stroke="#6b8fc9" stroke-width="1.6" points="337.61,-41.9 343.4,-36.01 335.2,-37 337.61,-41.9"/>
</g>
<!-- Await -->
<g id="node2" class="node">
<title>Await</title>
<path fill="#5158d9" stroke="#a8b0ff" stroke-width="2.2" d="M218.5,-216C218.5,-216 179.5,-216 179.5,-216 173.5,-216 167.5,-210 167.5,-204 167.5,-204 167.5,-192 167.5,-192 167.5,-186 173.5,-180 179.5,-180 179.5,-180 218.5,-180 218.5,-180 224.5,-180 230.5,-186 230.5,-192 230.5,-192 230.5,-204 230.5,-204 230.5,-210 224.5,-216 218.5,-216"/>
<text text-anchor="middle" x="199" y="-194.6" font-family="Helvetica Neue" font-size="13.00" fill="#ffffff">Await</text>
</g>
<!-- Await&#45;&gt;Async -->
<g id="edge5" class="edge">
<title>Await&#45;&gt;Async</title>
<path fill="none" stroke="#747cf0" stroke-width="1.6" d="M199,-179.61C199,-166.63 199,-148.7 199,-134.16"/>
<polygon fill="#747cf0" stroke="#747cf0" stroke-width="1.6" points="201.73,-133.85 199,-126.05 196.27,-133.85 201.73,-133.85"/>
</g>
</g>
</svg>
