<?xml version="1.0" encoding="UTF-8" standalone="no"?>
<!DOCTYPE svg PUBLIC "-//W3C//DTD SVG 1.1//EN"
 "http://www.w3.org/Graphics/SVG/1.1/DTD/svg11.dtd">
<!-- Generated by graphviz version 2.43.0 (0)
 -->
<!-- Title: ContainersReflectionDependencies Pages: 1 -->
<svg width="271pt" height="259pt"
 viewBox="0.00 0.00 270.70 259.20" xmlns="http://www.w3.org/2000/svg" xmlns:xlink="http://www.w3.org/1999/xlink">
<g id="graph0" class="graph" transform="scale(1 1) rotate(0) translate(21.6 237.6)">
<title>ContainersReflectionDependencies</title>
<!-- Containers -->
<g id="node1" class="node">
<title>Containers</title>
<path fill="#ddf8f2" stroke="#39bda7" stroke-width="1.8" d="M86,-126C86,-126 12,-126 12,-126 6,-126 0,-120 0,-114 0,-114 0,-102 0,-102 0,-96 6,-90 12,-90 12,-90 86,-90 86,-90 92,-90 98,-96 98,-102 98,-102 98,-114 98,-114 98,-120 92,-126 86,-126"/>
<text text-anchor="middle" x="49" y="-104.6" font-family="Helvetica Neue" font-size="13.00" fill="#17233d">Containers</text>
</g>
<!-- Memory -->
<g id="node3" class="node">
<title>Memory</title>
<path fill="#e9f1ff" stroke="#7895d5" stroke-width="1.4" d="M77,-36C77,-36 21,-36 21,-36 15,-36 9,-30 9,-24 9,-24 9,-12 9,-12 9,-6 15,0 21,0 21,0 77,0 77,0 83,0 89,-6 89,-12 89,-12 89,-24 89,-24 89,-30 83,-36 77,-36"/>
<text text-anchor="middle" x="49" y="-14.6" font-family="Helvetica Neue" font-size="13.00" fill="#17233d">Memory</text>
</g>
<!-- Containers&#45;&gt;Memory -->
<g id="edge1" class="edge">
<title>Containers&#45;&gt;Memory</title>
<path fill="none" stroke="#6b8fc9" stroke-width="1.6" d="M49,-89.61C49,-76.63 49,-58.7 49,-44.16"/>
<polygon fill="#6b8fc9" stroke="#6b8fc9" stroke-width="1.6" points="51.73,-43.85 49,-36.05 46.27,-43.85 51.73,-43.85"/>
</g>
<!-- ContainersReflection -->
<g id="node2" class="node">
<title>ContainersReflection</title>
<path fill="#5158d9" stroke="#a8b0ff" stroke-width="2.2" d="M185,-216C185,-216 45,-216 45,-216 39,-216 33,-210 33,-204 33,-204 33,-192 33,-192 33,-186 39,-180 45,-180 45,-180 185,-180 185,-180 191,-180 197,-186 197,-192 197,-192 197,-204 197,-204 197,-210 191,-216 185,-216"/>
<text text-anchor="middle" x="115" y="-194.6" font-family="Helvetica Neue" font-size="13.00" fill="#ffffff">ContainersReflection</text>
</g>
<!-- ContainersReflection&#45;&gt;Containers -->
<g id="edge2" class="edge">
<title>ContainersReflection&#45;&gt;Containers</title>
<path fill="none" stroke="#747cf0" stroke-width="1.6" d="M101.96,-179.61C91.86,-166.15 77.77,-147.36 66.66,-132.54"/>
<polygon fill="#747cf0" stroke="#747cf0" stroke-width="1.6" points="68.65,-130.65 61.79,-126.05 64.28,-133.93 68.65,-130.65"/>
</g>
<!-- Reflection -->
<g id="node4" class="node">
<title>Reflection</title>
<path fill="#ddf8f2" stroke="#39bda7" stroke-width="1.8" d="M215.5,-126C215.5,-126 146.5,-126 146.5,-126 140.5,-126 134.5,-120 134.5,-114 134.5,-114 134.5,-102 134.5,-102 134.5,-96 140.5,-90 146.5,-90 146.5,-90 215.5,-90 215.5,-90 221.5,-90 227.5,-96 227.5,-102 227.5,-102 227.5,-114 227.5,-114 227.5,-120 221.5,-126 215.5,-126"/>
<text text-anchor="middle" x="181" y="-104.6" font-family="Helvetica Neue" font-size="13.00" fill="#17233d">Reflection</text>
</g>
<!-- ContainersReflection&#45;&gt;Reflection -->
<g id="edge3" class="edge">
<title>ContainersReflection&#45;&gt;Reflection</title>
<path fill="none" stroke="#747cf0" stroke-width="1.6" d="M128.04,-179.61C138.14,-166.15 152.23,-147.36 163.34,-132.54"/>
<polygon fill="#747cf0" stroke="#747cf0" stroke-width="1.6" points="165.72,-133.93 168.21,-126.05 161.35,-130.65 165.72,-133.93"/>
</g>
</g>
</svg>
