<?xml version="1.0" encoding="UTF-8" standalone="no"?>
<!DOCTYPE svg PUBLIC "-//W3C//DTD SVG 1.1//EN"
 "http://www.w3.org/Graphics/SVG/1.1/DTD/svg11.dtd">
<!-- Generated by graphviz version 2.43.0 (0)
 -->
<!-- Title: ContainersDependencies Pages: 1 -->
<svg width="141pt" height="169pt"
 viewBox="0.00 0.00 141.20 169.20" xmlns="http://www.w3.org/2000/svg" xmlns:xlink="http://www.w3.org/1999/xlink">
<g id="graph0" class="graph" transform="scale(1 1) rotate(0) translate(21.6 147.6)">
<title>ContainersDependencies</title>
<!-- Containers -->
<g id="node1" class="node">
<title>Containers</title>
<path fill="#5158d9" stroke="#a8b0ff" stroke-width="2.2" d="M86,-126C86,-126 12,-126 12,-126 6,-126 0,-120 0,-114 0,-114 0,-102 0,-102 0,-96 6,-90 12,-90 12,-90 86,-90 86,-90 92,-90 98,-96 98,-102 98,-102 98,-114 98,-114 98,-120 92,-126 86,-126"/>
<text text-anchor="middle" x="49" y="-104.6" font-family="Helvetica Neue" font-size="13.00" fill="#ffffff">Containers</text>
</g>
<!-- Memory -->
<g id="node2" class="node">
<title>Memory</title>
<path fill="#ddf8f2" stroke="#39bda7" stroke-width="1.8" d="M77,-36C77,-36 21,-36 21,-36 15,-36 9,-30 9,-24 9,-24 9,-12 9,-12 9,-6 15,0 21,0 21,0 77,0 77,0 83,0 89,-6 89,-12 89,-12 89,-24 89,-24 89,-30 83,-36 77,-36"/>
<text text-anchor="middle" x="49" y="-14.6" font-family="Helvetica Neue" font-size="13.00" fill="#17233d">Memory</text>
</g>
<!-- Containers&#45;&gt;Memory -->
<g id="edge1" class="edge">
<title>Containers&#45;&gt;Memory</title>
<path fill="none" stroke="#747cf0" stroke-width="1.6" d="M49,-89.61C49,-76.63 49,-58.7 49,-44.16"/>
<polygon fill="#747cf0" stroke="#747cf0" stroke-width="1.6" points="51.73,-43.85 49,-36.05 46.27,-43.85 51.73,-43.85"/>
</g>
</g>
</svg>
