<?xml version="1.0" encoding="UTF-8" standalone="no"?>
<!DOCTYPE svg PUBLIC "-//W3C//DTD SVG 1.1//EN"
 "http://www.w3.org/Graphics/SVG/1.1/DTD/svg11.dtd">
<!-- Generated by graphviz version 2.43.0 (0)
 -->
<!-- Title: ContainersReflectionDependencies Pages: 1 -->
<svg width="210pt" height="188pt"
 viewBox="0.00 0.00 209.50 188.00" xmlns="http://www.w3.org/2000/svg" xmlns:xlink="http://www.w3.org/1999/xlink">
<g id="graph0" class="graph" transform="scale(1 1) rotate(0) translate(4 184)">
<title>ContainersReflectionDependencies</title>
<polygon fill="white" stroke="transparent" points="-4,4 -4,-184 205.5,-184 205.5,4 -4,4"/>
<!-- Containers -->
<g id="node1" class="node">
<title>Containers</title>
<polygon fill="none" stroke="black" points="95,-108 0,-108 0,-72 95,-72 95,-108"/>
<text text-anchor="middle" x="47.5" y="-86.3" font-family="Times,serif" font-size="14.00">Containers</text>
</g>
<!-- Memory -->
<g id="node3" class="node">
<title>Memory</title>
<polygon fill="none" stroke="black" points="85.5,-36 9.5,-36 9.5,0 85.5,0 85.5,-36"/>
<text text-anchor="middle" x="47.5" y="-14.3" font-family="Times,serif" font-size="14.00">Memory</text>
</g>
<!-- Containers&#45;&gt;Memory -->
<g id="edge1" class="edge">
<title>Containers&#45;&gt;Memory</title>
<path fill="none" stroke="black" d="M47.5,-71.7C47.5,-63.98 47.5,-54.71 47.5,-46.11"/>
<polygon fill="black" stroke="black" points="51,-46.1 47.5,-36.1 44,-46.1 51,-46.1"/>
</g>
<!-- ContainersReflection -->
<g id="node2" class="node">
<title>ContainersReflection</title>
<polygon fill="none" stroke="black" points="185.5,-180 19.5,-180 19.5,-144 185.5,-144 185.5,-180"/>
<text text-anchor="middle" x="102.5" y="-158.3" font-family="Times,serif" font-size="14.00">ContainersReflection</text>
</g>
<!-- ContainersReflection&#45;&gt;Containers -->
<g id="edge2" class="edge">
<title>ContainersReflection&#45;&gt;Containers</title>
<path fill="none" stroke="black" d="M88.9,-143.7C82.38,-135.39 74.43,-125.28 67.25,-116.14"/>
<polygon fill="black" stroke="black" points="69.87,-113.81 60.94,-108.1 64.37,-118.13 69.87,-113.81"/>
</g>
<!-- Reflection -->
<g id="node4" class="node">
<title>Reflection</title>
<polygon fill="none" stroke="black" points="201.5,-108 113.5,-108 113.5,-72 201.5,-72 201.5,-108"/>
<text text-anchor="middle" x="157.5" y="-86.3" font-family="Times,serif" font-size="14.00">Reflection</text>
</g>
<!-- ContainersReflection&#45;&gt;Reflection -->
<g id="edge3" class="edge">
<title>ContainersReflection&#45;&gt;Reflection</title>
<path fill="none" stroke="black" d="M116.1,-143.7C122.62,-135.39 130.57,-125.28 137.75,-116.14"/>
<polygon fill="black" stroke="black" points="140.63,-118.13 144.06,-108.1 135.13,-113.81 140.63,-118.13"/>
</g>
</g>
</svg>
