<?xml version="1.0" encoding="UTF-8" standalone="no"?>
<!DOCTYPE svg PUBLIC "-//W3C//DTD SVG 1.1//EN"
 "http://www.w3.org/Graphics/SVG/1.1/DTD/svg11.dtd">
<!-- Generated by graphviz version 2.43.0 (0)
 -->
<!-- Title: LibraryDependencies Pages: 1 -->
<svg width="1905pt" height="188pt"
 viewBox="0.00 0.00 1904.50 188.00" xmlns="http://www.w3.org/2000/svg" xmlns:xlink="http://www.w3.org/1999/xlink">
<g id="graph0" class="graph" transform="scale(1 1) rotate(0) translate(4 184)">
<title>LibraryDependencies</title>
<polygon fill="white" stroke="transparent" points="-4,4 -4,-184 1900.5,-184 1900.5,4 -4,4"/>
<!-- Async -->
<g id="node1" class="node">
<title>Async</title>
<polygon fill="none" stroke="black" points="825,-108 766,-108 766,-72 825,-72 825,-108"/>
<text text-anchor="middle" x="795.5" y="-86.3" font-family="Times,serif" font-size="14.00">Async</text>
</g>
<!-- File -->
<g id="node6" class="node">
<title>File</title>
<polygon fill="none" stroke="black" points="629.5,-36 575.5,-36 575.5,0 629.5,0 629.5,-36"/>
<text text-anchor="middle" x="602.5" y="-14.3" font-family="Times,serif" font-size="14.00">File</text>
</g>
<!-- Async&#45;&gt;File -->
<g id="edge1" class="edge">
<title>Async&#45;&gt;File</title>
<path fill="none" stroke="black" d="M765.77,-78.22C731.84,-65.91 676.32,-45.78 639.6,-32.45"/>
<polygon fill="black" stroke="black" points="640.36,-29.01 629.77,-28.89 637.98,-35.59 640.36,-29.01"/>
</g>
<!-- FileSystem -->
<g id="node7" class="node">
<title>FileSystem</title>
<polygon fill="none" stroke="black" points="745,-36 648,-36 648,0 745,0 745,-36"/>
<text text-anchor="middle" x="696.5" y="-14.3" font-family="Times,serif" font-size="14.00">FileSystem</text>
</g>
<!-- Async&#45;&gt;FileSystem -->
<g id="edge2" class="edge">
<title>Async&#45;&gt;FileSystem</title>
<path fill="none" stroke="black" d="M771.28,-71.88C758.58,-62.89 742.84,-51.76 729.08,-42.03"/>
<polygon fill="black" stroke="black" points="731,-39.11 720.81,-36.19 726.96,-44.82 731,-39.11"/>
</g>
<!-- Socket -->
<g id="node21" class="node">
<title>Socket</title>
<polygon fill="none" stroke="black" points="828,-36 763,-36 763,0 828,0 828,-36"/>
<text text-anchor="middle" x="795.5" y="-14.3" font-family="Times,serif" font-size="14.00">Socket</text>
</g>
<!-- Async&#45;&gt;Socket -->
<g id="edge3" class="edge">
<title>Async&#45;&gt;Socket</title>
<path fill="none" stroke="black" d="M795.5,-71.7C795.5,-63.98 795.5,-54.71 795.5,-46.11"/>
<polygon fill="black" stroke="black" points="799,-46.1 795.5,-36.1 792,-46.1 799,-46.1"/>
</g>
<!-- Threading -->
<g id="node24" class="node">
<title>Threading</title>
<polygon fill="none" stroke="black" points="935,-36 846,-36 846,0 935,0 935,-36"/>
<text text-anchor="middle" x="890.5" y="-14.3" font-family="Times,serif" font-size="14.00">Threading</text>
</g>
<!-- Async&#45;&gt;Threading -->
<g id="edge4" class="edge">
<title>Async&#45;&gt;Threading</title>
<path fill="none" stroke="black" d="M818.98,-71.7C831.06,-62.8 845.95,-51.82 859.02,-42.2"/>
<polygon fill="black" stroke="black" points="861.31,-44.85 867.29,-36.1 857.16,-39.22 861.31,-44.85"/>
</g>
<!-- AsyncStreams -->
<g id="node2" class="node">
<title>AsyncStreams</title>
<polygon fill="none" stroke="black" points="1072,-36 953,-36 953,0 1072,0 1072,-36"/>
<text text-anchor="middle" x="1012.5" y="-14.3" font-family="Times,serif" font-size="14.00">AsyncStreams</text>
</g>
<!-- Await -->
<g id="node3" class="node">
<title>Await</title>
<polygon fill="none" stroke="black" points="824,-180 767,-180 767,-144 824,-144 824,-180"/>
<text text-anchor="middle" x="795.5" y="-158.3" font-family="Times,serif" font-size="14.00">Await</text>
</g>
<!-- Await&#45;&gt;Async -->
<g id="edge5" class="edge">
<title>Await&#45;&gt;Async</title>
<path fill="none" stroke="black" d="M795.5,-143.7C795.5,-135.98 795.5,-126.71 795.5,-118.11"/>
<polygon fill="black" stroke="black" points="799,-118.1 795.5,-108.1 792,-118.1 799,-118.1"/>
</g>
<!-- Containers -->
<g id="node4" class="node">
<title>Containers</title>
<polygon fill="none" stroke="black" points="95,-108 0,-108 0,-72 95,-72 95,-108"/>
<text text-anchor="middle" x="47.5" y="-86.3" font-family="Times,serif" font-size="14.00">Containers</text>
</g>
<!-- Memory -->
<g id="node14" class="node">
<title>Memory</title>
<polygon fill="none" stroke="black" points="85.5,-36 9.5,-36 9.5,0 85.5,0 85.5,-36"/>
<text text-anchor="middle" x="47.5" y="-14.3" font-family="Times,serif" font-size="14.00">Memory</text>
</g>
<!-- Containers&#45;&gt;Memory -->
<g id="edge6" class="edge">
<title>Containers&#45;&gt;Memory</title>
<path fill="none" stroke="black" d="M47.5,-71.7C47.5,-63.98 47.5,-54.71 47.5,-46.11"/>
<polygon fill="black" stroke="black" points="51,-46.1 47.5,-36.1 44,-46.1 51,-46.1"/>
</g>
<!-- ContainersReflection -->
<g id="node5" class="node">
<title>ContainersReflection</title>
<polygon fill="none" stroke="black" points="254.5,-180 88.5,-180 88.5,-144 254.5,-144 254.5,-180"/>
<text text-anchor="middle" x="171.5" y="-158.3" font-family="Times,serif" font-size="14.00">ContainersReflection</text>
</g>
<!-- ContainersReflection&#45;&gt;Containers -->
<g id="edge7" class="edge">
<title>ContainersReflection&#45;&gt;Containers</title>
<path fill="none" stroke="black" d="M141.17,-143.88C124.8,-134.64 104.42,-123.13 86.85,-113.21"/>
<polygon fill="black" stroke="black" points="88.38,-110.06 77.95,-108.19 84.94,-116.15 88.38,-110.06"/>
</g>
<!-- Reflection -->
<g id="node17" class="node">
<title>Reflection</title>
<polygon fill="none" stroke="black" points="339.5,-36 251.5,-36 251.5,0 339.5,0 339.5,-36"/>
<text text-anchor="middle" x="295.5" y="-14.3" font-family="Times,serif" font-size="14.00">Reflection</text>
</g>
<!-- ContainersReflection&#45;&gt;Reflection -->
<g id="edge8" class="edge">
<title>ContainersReflection&#45;&gt;Reflection</title>
<path fill="none" stroke="black" d="M187.2,-143.76C209.01,-118.44 248.55,-72.52 273.35,-43.73"/>
<polygon fill="black" stroke="black" points="276.05,-45.95 279.92,-36.09 270.75,-41.38 276.05,-45.95"/>
</g>
<!-- FileSystemIterator -->
<g id="node8" class="node">
<title>FileSystemIterator</title>
<polygon fill="none" stroke="black" points="1242.5,-36 1090.5,-36 1090.5,0 1242.5,0 1242.5,-36"/>
<text text-anchor="middle" x="1166.5" y="-14.3" font-family="Times,serif" font-size="14.00">FileSystemIterator</text>
</g>
<!-- FileSystemWatcher -->
<g id="node9" class="node">
<title>FileSystemWatcher</title>
<polygon fill="none" stroke="black" points="1416.5,-36 1260.5,-36 1260.5,0 1416.5,0 1416.5,-36"/>
<text text-anchor="middle" x="1338.5" y="-14.3" font-family="Times,serif" font-size="14.00">FileSystemWatcher</text>
</g>
<!-- Foundation -->
<g id="node10" class="node">
<title>Foundation</title>
<polygon fill="none" stroke="black" points="1532,-36 1435,-36 1435,0 1532,0 1532,-36"/>
<text text-anchor="middle" x="1483.5" y="-14.3" font-family="Times,serif" font-size="14.00">Foundation</text>
</g>
<!-- Hashing -->
<g id="node11" class="node">
<title>Hashing</title>
<polygon fill="none" stroke="black" points="1626.5,-36 1550.5,-36 1550.5,0 1626.5,0 1626.5,-36"/>
<text text-anchor="middle" x="1588.5" y="-14.3" font-family="Times,serif" font-size="14.00">Hashing</text>
</g>
<!-- Http -->
<g id="node12" class="node">
<title>Http</title>
<polygon fill="none" stroke="black" points="967.5,-180 913.5,-180 913.5,-144 967.5,-144 967.5,-180"/>
<text text-anchor="middle" x="940.5" y="-158.3" font-family="Times,serif" font-size="14.00">Http</text>
</g>
<!-- Http&#45;&gt;Async -->
<g id="edge9" class="edge">
<title>Http&#45;&gt;Async</title>
<path fill="none" stroke="black" d="M913.23,-147.83C890.97,-137.09 859.24,-121.77 834.33,-109.74"/>
<polygon fill="black" stroke="black" points="835.67,-106.51 825.15,-105.31 832.63,-112.81 835.67,-106.51"/>
</g>
<!-- Http&#45;&gt;AsyncStreams -->
<g id="edge10" class="edge">
<title>Http&#45;&gt;AsyncStreams</title>
<path fill="none" stroke="black" d="M949.62,-143.76C962.06,-118.88 984.46,-74.08 998.89,-45.22"/>
<polygon fill="black" stroke="black" points="1002.11,-46.6 1003.46,-36.09 995.85,-43.47 1002.11,-46.6"/>
</g>
<!-- HttpClient -->
<g id="node13" class="node">
<title>HttpClient</title>
<polygon fill="none" stroke="black" points="1736.5,-36 1644.5,-36 1644.5,0 1736.5,0 1736.5,-36"/>
<text text-anchor="middle" x="1690.5" y="-14.3" font-family="Times,serif" font-size="14.00">HttpClient</text>
</g>
<!-- Plugin -->
<g id="node15" class="node">
<title>Plugin</title>
<polygon fill="none" stroke="black" points="552.5,-180 490.5,-180 490.5,-144 552.5,-144 552.5,-180"/>
<text text-anchor="middle" x="521.5" y="-158.3" font-family="Times,serif" font-size="14.00">Plugin</text>
</g>
<!-- Process -->
<g id="node16" class="node">
<title>Process</title>
<polygon fill="none" stroke="black" points="589.5,-108 517.5,-108 517.5,-72 589.5,-72 589.5,-108"/>
<text text-anchor="middle" x="553.5" y="-86.3" font-family="Times,serif" font-size="14.00">Process</text>
</g>
<!-- Plugin&#45;&gt;Process -->
<g id="edge11" class="edge">
<title>Plugin&#45;&gt;Process</title>
<path fill="none" stroke="black" d="M529.41,-143.7C533.05,-135.73 537.45,-126.1 541.49,-117.26"/>
<polygon fill="black" stroke="black" points="544.71,-118.65 545.68,-108.1 538.34,-115.74 544.71,-118.65"/>
</g>
<!-- Strings -->
<g id="node22" class="node">
<title>Strings</title>
<polygon fill="none" stroke="black" points="475,-36 406,-36 406,0 475,0 475,-36"/>
<text text-anchor="middle" x="440.5" y="-14.3" font-family="Times,serif" font-size="14.00">Strings</text>
</g>
<!-- Plugin&#45;&gt;Strings -->
<g id="edge12" class="edge">
<title>Plugin&#45;&gt;Strings</title>
<path fill="none" stroke="black" d="M511.24,-143.76C497.18,-118.77 471.83,-73.69 455.6,-44.84"/>
<polygon fill="black" stroke="black" points="458.63,-43.09 450.68,-36.09 452.53,-46.52 458.63,-43.09"/>
</g>
<!-- Process&#45;&gt;File -->
<g id="edge13" class="edge">
<title>Process&#45;&gt;File</title>
<path fill="none" stroke="black" d="M565.61,-71.7C571.37,-63.47 578.36,-53.48 584.71,-44.42"/>
<polygon fill="black" stroke="black" points="587.66,-46.3 590.53,-36.1 581.92,-42.29 587.66,-46.3"/>
</g>
<!-- SerialPort -->
<g id="node18" class="node">
<title>SerialPort</title>
<polygon fill="none" stroke="black" points="697,-108 608,-108 608,-72 697,-72 697,-108"/>
<text text-anchor="middle" x="652.5" y="-86.3" font-family="Times,serif" font-size="14.00">SerialPort</text>
</g>
<!-- SerialPort&#45;&gt;File -->
<g id="edge14" class="edge">
<title>SerialPort&#45;&gt;File</title>
<path fill="none" stroke="black" d="M640.14,-71.7C634.27,-63.47 627.13,-53.48 620.66,-44.42"/>
<polygon fill="black" stroke="black" points="623.38,-42.21 614.72,-36.1 617.68,-46.28 623.38,-42.21"/>
</g>
<!-- SerializationBinary -->
<g id="node19" class="node">
<title>SerializationBinary</title>
<polygon fill="none" stroke="black" points="267.5,-108 113.5,-108 113.5,-72 267.5,-72 267.5,-108"/>
<text text-anchor="middle" x="190.5" y="-86.3" font-family="Times,serif" font-size="14.00">SerializationBinary</text>
</g>
<!-- SerializationBinary&#45;&gt;Reflection -->
<g id="edge15" class="edge">
<title>SerializationBinary&#45;&gt;Reflection</title>
<path fill="none" stroke="black" d="M216.19,-71.88C229.79,-62.81 246.67,-51.55 261.36,-41.76"/>
<polygon fill="black" stroke="black" points="263.34,-44.65 269.72,-36.19 259.45,-38.82 263.34,-44.65"/>
</g>
<!-- SerializationText -->
<g id="node20" class="node">
<title>SerializationText</title>
<polygon fill="none" stroke="black" points="461,-108 324,-108 324,-72 461,-72 461,-108"/>
<text text-anchor="middle" x="392.5" y="-86.3" font-family="Times,serif" font-size="14.00">SerializationText</text>
</g>
<!-- SerializationText&#45;&gt;Reflection -->
<g id="edge16" class="edge">
<title>SerializationText&#45;&gt;Reflection</title>
<path fill="none" stroke="black" d="M368.52,-71.7C356.19,-62.8 340.98,-51.82 327.65,-42.2"/>
<polygon fill="black" stroke="black" points="329.36,-39.12 319.2,-36.1 325.26,-44.79 329.36,-39.12"/>
</g>
<!-- SerializationText&#45;&gt;Strings -->
<g id="edge17" class="edge">
<title>SerializationText&#45;&gt;Strings</title>
<path fill="none" stroke="black" d="M404.37,-71.7C410,-63.47 416.85,-53.48 423.07,-44.42"/>
<polygon fill="black" stroke="black" points="426,-46.33 428.77,-36.1 420.23,-42.37 426,-46.33"/>
</g>
<!-- Testing -->
<g id="node23" class="node">
<title>Testing</title>
<polygon fill="none" stroke="black" points="1824,-36 1755,-36 1755,0 1824,0 1824,-36"/>
<text text-anchor="middle" x="1789.5" y="-14.3" font-family="Times,serif" font-size="14.00">Testing</text>
</g>
<!-- Time -->
<g id="node25" class="node">
<title>Time</title>
<polygon fill="none" stroke="black" points="1896.5,-36 1842.5,-36 1842.5,0 1896.5,0 1896.5,-36"/>
<text text-anchor="middle" x="1869.5" y="-14.3" font-family="Times,serif" font-size="14.00">Time</text>
</g>
</g>
</svg>
