<?xml version="1.0" encoding="UTF-8" standalone="no"?>
<!DOCTYPE svg PUBLIC "-//W3C//DTD SVG 1.1//EN"
 "http://www.w3.org/Graphics/SVG/1.1/DTD/svg11.dtd">
<!-- Generated by graphviz version 2.43.0 (0)
 -->
<!-- Title: LibraryDependencies Pages: 1 -->
<svg width="1888pt" height="188pt"
 viewBox="0.00 0.00 1887.50 188.00" xmlns="http://www.w3.org/2000/svg" xmlns:xlink="http://www.w3.org/1999/xlink">
<g id="graph0" class="graph" transform="scale(1 1) rotate(0) translate(4 184)">
<title>LibraryDependencies</title>
<polygon fill="white" stroke="transparent" points="-4,4 -4,-184 1883.5,-184 1883.5,4 -4,4"/>
<!-- Async -->
<g id="node1" class="node">
<title>Async</title>
<polygon fill="none" stroke="black" points="423,-108 364,-108 364,-72 423,-72 423,-108"/>
<text text-anchor="middle" x="393.5" y="-86.3" font-family="Times,serif" font-size="14.00">Async</text>
</g>
<!-- File -->
<g id="node8" class="node">
<title>File</title>
<polygon fill="none" stroke="black" points="164.5,-36 110.5,-36 110.5,0 164.5,0 164.5,-36"/>
<text text-anchor="middle" x="137.5" y="-14.3" font-family="Times,serif" font-size="14.00">File</text>
</g>
<!-- Async&#45;&gt;File -->
<g id="edge1" class="edge">
<title>Async&#45;&gt;File</title>
<path fill="none" stroke="black" d="M363.88,-80.9C316.87,-68.05 225.28,-43 174.18,-29.03"/>
<polygon fill="black" stroke="black" points="175.1,-25.65 164.53,-26.39 173.25,-32.4 175.1,-25.65"/>
</g>
<!-- FileSystem -->
<g id="node9" class="node">
<title>FileSystem</title>
<polygon fill="none" stroke="black" points="360,-36 263,-36 263,0 360,0 360,-36"/>
<text text-anchor="middle" x="311.5" y="-14.3" font-family="Times,serif" font-size="14.00">FileSystem</text>
</g>
<!-- Async&#45;&gt;FileSystem -->
<g id="edge2" class="edge">
<title>Async&#45;&gt;FileSystem</title>
<path fill="none" stroke="black" d="M373.23,-71.7C363,-62.97 350.44,-52.24 339.32,-42.75"/>
<polygon fill="black" stroke="black" points="341.41,-39.94 331.54,-36.1 336.87,-45.26 341.41,-39.94"/>
</g>
<!-- Socket -->
<g id="node23" class="node">
<title>Socket</title>
<polygon fill="none" stroke="black" points="443,-36 378,-36 378,0 443,0 443,-36"/>
<text text-anchor="middle" x="410.5" y="-14.3" font-family="Times,serif" font-size="14.00">Socket</text>
</g>
<!-- Async&#45;&gt;Socket -->
<g id="edge3" class="edge">
<title>Async&#45;&gt;Socket</title>
<path fill="none" stroke="black" d="M397.7,-71.7C399.6,-63.9 401.88,-54.51 403.98,-45.83"/>
<polygon fill="black" stroke="black" points="407.39,-46.65 406.35,-36.1 400.58,-45 407.39,-46.65"/>
</g>
<!-- Threading -->
<g id="node26" class="node">
<title>Threading</title>
<polygon fill="none" stroke="black" points="550,-36 461,-36 461,0 550,0 550,-36"/>
<text text-anchor="middle" x="505.5" y="-14.3" font-family="Times,serif" font-size="14.00">Threading</text>
</g>
<!-- Async&#45;&gt;Threading -->
<g id="edge4" class="edge">
<title>Async&#45;&gt;Threading</title>
<path fill="none" stroke="black" d="M420.9,-71.88C435.41,-62.81 453.42,-51.55 469.09,-41.76"/>
<polygon fill="black" stroke="black" points="471.37,-44.46 478,-36.19 467.66,-38.52 471.37,-44.46"/>
</g>
<!-- AsyncStreams -->
<g id="node2" class="node">
<title>AsyncStreams</title>
<polygon fill="none" stroke="black" points="687,-36 568,-36 568,0 687,0 687,-36"/>
<text text-anchor="middle" x="627.5" y="-14.3" font-family="Times,serif" font-size="14.00">AsyncStreams</text>
</g>
<!-- Await -->
<g id="node3" class="node">
<title>Await</title>
<polygon fill="none" stroke="black" points="422,-180 365,-180 365,-144 422,-144 422,-180"/>
<text text-anchor="middle" x="393.5" y="-158.3" font-family="Times,serif" font-size="14.00">Await</text>
</g>
<!-- Await&#45;&gt;Async -->
<g id="edge5" class="edge">
<title>Await&#45;&gt;Async</title>
<path fill="none" stroke="black" d="M393.5,-143.7C393.5,-135.98 393.5,-126.71 393.5,-118.11"/>
<polygon fill="black" stroke="black" points="397,-118.1 393.5,-108.1 390,-118.1 397,-118.1"/>
</g>
<!-- Containers -->
<g id="node4" class="node">
<title>Containers</title>
<polygon fill="none" stroke="black" points="791,-108 696,-108 696,-72 791,-72 791,-108"/>
<text text-anchor="middle" x="743.5" y="-86.3" font-family="Times,serif" font-size="14.00">Containers</text>
</g>
<!-- Memory -->
<g id="node16" class="node">
<title>Memory</title>
<polygon fill="none" stroke="black" points="781.5,-36 705.5,-36 705.5,0 781.5,0 781.5,-36"/>
<text text-anchor="middle" x="743.5" y="-14.3" font-family="Times,serif" font-size="14.00">Memory</text>
</g>
<!-- Containers&#45;&gt;Memory -->
<g id="edge6" class="edge">
<title>Containers&#45;&gt;Memory</title>
<path fill="none" stroke="black" d="M743.5,-71.7C743.5,-63.98 743.5,-54.71 743.5,-46.11"/>
<polygon fill="black" stroke="black" points="747,-46.1 743.5,-36.1 740,-46.1 747,-46.1"/>
</g>
<!-- ContainersReflection -->
<g id="node5" class="node">
<title>ContainersReflection</title>
<polygon fill="none" stroke="black" points="864.5,-180 698.5,-180 698.5,-144 864.5,-144 864.5,-180"/>
<text text-anchor="middle" x="781.5" y="-158.3" font-family="Times,serif" font-size="14.00">ContainersReflection</text>
</g>
<!-- ContainersReflection&#45;&gt;Containers -->
<g id="edge7" class="edge">
<title>ContainersReflection&#45;&gt;Containers</title>
<path fill="none" stroke="black" d="M772.11,-143.7C767.74,-135.64 762.44,-125.89 757.6,-116.98"/>
<polygon fill="black" stroke="black" points="760.63,-115.22 752.79,-108.1 754.48,-118.56 760.63,-115.22"/>
</g>
<!-- Reflection -->
<g id="node19" class="node">
<title>Reflection</title>
<polygon fill="none" stroke="black" points="968.5,-36 880.5,-36 880.5,0 968.5,0 968.5,-36"/>
<text text-anchor="middle" x="924.5" y="-14.3" font-family="Times,serif" font-size="14.00">Reflection</text>
</g>
<!-- ContainersReflection&#45;&gt;Reflection -->
<g id="edge8" class="edge">
<title>ContainersReflection&#45;&gt;Reflection</title>
<path fill="none" stroke="black" d="M799.61,-143.76C824.86,-118.34 870.75,-72.13 899.32,-43.36"/>
<polygon fill="black" stroke="black" points="901.97,-45.65 906.54,-36.09 897.01,-40.72 901.97,-45.65"/>
</g>
<!-- Fibers -->
<g id="node6" class="node">
<title>Fibers</title>
<polygon fill="none" stroke="black" points="244.5,-36 182.5,-36 182.5,0 244.5,0 244.5,-36"/>
<text text-anchor="middle" x="213.5" y="-14.3" font-family="Times,serif" font-size="14.00">Fibers</text>
</g>
<!-- FibersAsync -->
<g id="node7" class="node">
<title>FibersAsync</title>
<polygon fill="none" stroke="black" points="313.5,-180 209.5,-180 209.5,-144 313.5,-144 313.5,-180"/>
<text text-anchor="middle" x="261.5" y="-158.3" font-family="Times,serif" font-size="14.00">FibersAsync</text>
</g>
<!-- FibersAsync&#45;&gt;Async -->
<g id="edge9" class="edge">
<title>FibersAsync&#45;&gt;Async</title>
<path fill="none" stroke="black" d="M293.79,-143.88C312.24,-134.09 335.49,-121.76 354.9,-111.47"/>
<polygon fill="black" stroke="black" points="356.6,-114.53 363.8,-106.75 353.33,-108.34 356.6,-114.53"/>
</g>
<!-- FibersAsync&#45;&gt;Fibers -->
<g id="edge10" class="edge">
<title>FibersAsync&#45;&gt;Fibers</title>
<path fill="none" stroke="black" d="M255.42,-143.76C247.16,-118.98 232.32,-74.47 222.7,-45.59"/>
<polygon fill="black" stroke="black" points="226.01,-44.47 219.53,-36.09 219.37,-46.68 226.01,-44.47"/>
</g>
<!-- FileSystemIterator -->
<g id="node10" class="node">
<title>FileSystemIterator</title>
<polygon fill="none" stroke="black" points="1138.5,-36 986.5,-36 986.5,0 1138.5,0 1138.5,-36"/>
<text text-anchor="middle" x="1062.5" y="-14.3" font-family="Times,serif" font-size="14.00">FileSystemIterator</text>
</g>
<!-- FileSystemWatcher -->
<g id="node11" class="node">
<title>FileSystemWatcher</title>
<polygon fill="none" stroke="black" points="1312.5,-36 1156.5,-36 1156.5,0 1312.5,0 1312.5,-36"/>
<text text-anchor="middle" x="1234.5" y="-14.3" font-family="Times,serif" font-size="14.00">FileSystemWatcher</text>
</g>
<!-- Foundation -->
<g id="node12" class="node">
<title>Foundation</title>
<polygon fill="none" stroke="black" points="1428,-36 1331,-36 1331,0 1428,0 1428,-36"/>
<text text-anchor="middle" x="1379.5" y="-14.3" font-family="Times,serif" font-size="14.00">Foundation</text>
</g>
<!-- Hashing -->
<g id="node13" class="node">
<title>Hashing</title>
<polygon fill="none" stroke="black" points="1522.5,-36 1446.5,-36 1446.5,0 1522.5,0 1522.5,-36"/>
<text text-anchor="middle" x="1484.5" y="-14.3" font-family="Times,serif" font-size="14.00">Hashing</text>
</g>
<!-- Http -->
<g id="node14" class="node">
<title>Http</title>
<polygon fill="none" stroke="black" points="574.5,-180 520.5,-180 520.5,-144 574.5,-144 574.5,-180"/>
<text text-anchor="middle" x="547.5" y="-158.3" font-family="Times,serif" font-size="14.00">Http</text>
</g>
<!-- Http&#45;&gt;Async -->
<g id="edge11" class="edge">
<title>Http&#45;&gt;Async</title>
<path fill="none" stroke="black" d="M520.32,-148.65C495.91,-137.55 459.8,-121.14 432.35,-108.66"/>
<polygon fill="black" stroke="black" points="433.58,-105.37 423.03,-104.42 430.69,-111.75 433.58,-105.37"/>
</g>
<!-- Http&#45;&gt;AsyncStreams -->
<g id="edge12" class="edge">
<title>Http&#45;&gt;AsyncStreams</title>
<path fill="none" stroke="black" d="M557.63,-143.76C571.52,-118.77 596.56,-73.69 612.59,-44.84"/>
<polygon fill="black" stroke="black" points="615.65,-46.53 617.45,-36.09 609.53,-43.13 615.65,-46.53"/>
</g>
<!-- HttpClient -->
<g id="node15" class="node">
<title>HttpClient</title>
<polygon fill="none" stroke="black" points="1632.5,-36 1540.5,-36 1540.5,0 1632.5,0 1632.5,-36"/>
<text text-anchor="middle" x="1586.5" y="-14.3" font-family="Times,serif" font-size="14.00">HttpClient</text>
</g>
<!-- Plugin -->
<g id="node17" class="node">
<title>Plugin</title>
<polygon fill="none" stroke="black" points="174.5,-180 112.5,-180 112.5,-144 174.5,-144 174.5,-180"/>
<text text-anchor="middle" x="143.5" y="-158.3" font-family="Times,serif" font-size="14.00">Plugin</text>
</g>
<!-- Process -->
<g id="node18" class="node">
<title>Process</title>
<polygon fill="none" stroke="black" points="179.5,-108 107.5,-108 107.5,-72 179.5,-72 179.5,-108"/>
<text text-anchor="middle" x="143.5" y="-86.3" font-family="Times,serif" font-size="14.00">Process</text>
</g>
<!-- Plugin&#45;&gt;Process -->
<g id="edge13" class="edge">
<title>Plugin&#45;&gt;Process</title>
<path fill="none" stroke="black" d="M143.5,-143.7C143.5,-135.98 143.5,-126.71 143.5,-118.11"/>
<polygon fill="black" stroke="black" points="147,-118.1 143.5,-108.1 140,-118.1 147,-118.1"/>
</g>
<!-- Process&#45;&gt;File -->
<g id="edge14" class="edge">
<title>Process&#45;&gt;File</title>
<path fill="none" stroke="black" d="M142.02,-71.7C141.36,-63.98 140.56,-54.71 139.82,-46.11"/>
<polygon fill="black" stroke="black" points="143.31,-45.77 138.97,-36.1 136.33,-46.37 143.31,-45.77"/>
</g>
<!-- SerialPort -->
<g id="node20" class="node">
<title>SerialPort</title>
<polygon fill="none" stroke="black" points="89,-108 0,-108 0,-72 89,-72 89,-108"/>
<text text-anchor="middle" x="44.5" y="-86.3" font-family="Times,serif" font-size="14.00">SerialPort</text>
</g>
<!-- SerialPort&#45;&gt;File -->
<g id="edge15" class="edge">
<title>SerialPort&#45;&gt;File</title>
<path fill="none" stroke="black" d="M67.49,-71.7C79.31,-62.8 93.89,-51.82 106.68,-42.2"/>
<polygon fill="black" stroke="black" points="108.89,-44.91 114.78,-36.1 104.68,-39.32 108.89,-44.91"/>
</g>
<!-- SerializationBinary -->
<g id="node21" class="node">
<title>SerializationBinary</title>
<polygon fill="none" stroke="black" points="1001.5,-108 847.5,-108 847.5,-72 1001.5,-72 1001.5,-108"/>
<text text-anchor="middle" x="924.5" y="-86.3" font-family="Times,serif" font-size="14.00">SerializationBinary</text>
</g>
<!-- SerializationBinary&#45;&gt;Reflection -->
<g id="edge16" class="edge">
<title>SerializationBinary&#45;&gt;Reflection</title>
<path fill="none" stroke="black" d="M924.5,-71.7C924.5,-63.98 924.5,-54.71 924.5,-46.11"/>
<polygon fill="black" stroke="black" points="928,-46.1 924.5,-36.1 921,-46.1 928,-46.1"/>
</g>
<!-- SerializationText -->
<g id="node22" class="node">
<title>SerializationText</title>
<polygon fill="none" stroke="black" points="1157,-108 1020,-108 1020,-72 1157,-72 1157,-108"/>
<text text-anchor="middle" x="1088.5" y="-86.3" font-family="Times,serif" font-size="14.00">SerializationText</text>
</g>
<!-- SerializationText&#45;&gt;Reflection -->
<g id="edge17" class="edge">
<title>SerializationText&#45;&gt;Reflection</title>
<path fill="none" stroke="black" d="M1048.38,-71.88C1025.86,-62.26 997.58,-50.19 973.73,-40.01"/>
<polygon fill="black" stroke="black" points="975.06,-36.77 964.49,-36.07 972.31,-43.21 975.06,-36.77"/>
</g>
<!-- Strings -->
<g id="node24" class="node">
<title>Strings</title>
<polygon fill="none" stroke="black" points="1720,-36 1651,-36 1651,0 1720,0 1720,-36"/>
<text text-anchor="middle" x="1685.5" y="-14.3" font-family="Times,serif" font-size="14.00">Strings</text>
</g>
<!-- Testing -->
<g id="node25" class="node">
<title>Testing</title>
<polygon fill="none" stroke="black" points="1807,-36 1738,-36 1738,0 1807,0 1807,-36"/>
<text text-anchor="middle" x="1772.5" y="-14.3" font-family="Times,serif" font-size="14.00">Testing</text>
</g>
<!-- Time -->
<g id="node27" class="node">
<title>Time</title>
<polygon fill="none" stroke="black" points="1879.5,-36 1825.5,-36 1825.5,0 1879.5,0 1879.5,-36"/>
<text text-anchor="middle" x="1852.5" y="-14.3" font-family="Times,serif" font-size="14.00">Time</text>
</g>
</g>
</svg>
