<?xml version="1.0" encoding="UTF-8" standalone="no"?>
<!DOCTYPE svg PUBLIC "-//W3C//DTD SVG 1.1//EN"
 "http://www.w3.org/Graphics/SVG/1.1/DTD/svg11.dtd">
<!-- Generated by graphviz version 2.43.0 (0)
 -->
<!-- Title: LibraryDependencies Pages: 1 -->
<svg width="1793pt" height="188pt"
 viewBox="0.00 0.00 1793.00 188.00" xmlns="http://www.w3.org/2000/svg" xmlns:xlink="http://www.w3.org/1999/xlink">
<g id="graph0" class="graph" transform="scale(1 1) rotate(0) translate(4 184)">
<title>LibraryDependencies</title>
<polygon fill="white" stroke="transparent" points="-4,4 -4,-184 1789,-184 1789,4 -4,4"/>
<!-- Async -->
<g id="node1" class="node">
<title>Async</title>
<polygon fill="none" stroke="black" points="307.5,-108 248.5,-108 248.5,-72 307.5,-72 307.5,-108"/>
<text text-anchor="middle" x="278" y="-86.3" font-family="Times,serif" font-size="14.00">Async</text>
</g>
<!-- File -->
<g id="node6" class="node">
<title>File</title>
<polygon fill="none" stroke="black" points="112,-36 58,-36 58,0 112,0 112,-36"/>
<text text-anchor="middle" x="85" y="-14.3" font-family="Times,serif" font-size="14.00">File</text>
</g>
<!-- Async&#45;&gt;File -->
<g id="edge1" class="edge">
<title>Async&#45;&gt;File</title>
<path fill="none" stroke="black" d="M248.27,-78.22C214.34,-65.91 158.82,-45.78 122.1,-32.45"/>
<polygon fill="black" stroke="black" points="122.86,-29.01 112.27,-28.89 120.48,-35.59 122.86,-29.01"/>
</g>
<!-- FileSystem -->
<g id="node7" class="node">
<title>FileSystem</title>
<polygon fill="none" stroke="black" points="227.5,-36 130.5,-36 130.5,0 227.5,0 227.5,-36"/>
<text text-anchor="middle" x="179" y="-14.3" font-family="Times,serif" font-size="14.00">FileSystem</text>
</g>
<!-- Async&#45;&gt;FileSystem -->
<g id="edge2" class="edge">
<title>Async&#45;&gt;FileSystem</title>
<path fill="none" stroke="black" d="M253.78,-71.88C241.08,-62.89 225.34,-51.76 211.58,-42.03"/>
<polygon fill="black" stroke="black" points="213.5,-39.11 203.31,-36.19 209.46,-44.82 213.5,-39.11"/>
</g>
<!-- Socket -->
<g id="node21" class="node">
<title>Socket</title>
<polygon fill="none" stroke="black" points="310.5,-36 245.5,-36 245.5,0 310.5,0 310.5,-36"/>
<text text-anchor="middle" x="278" y="-14.3" font-family="Times,serif" font-size="14.00">Socket</text>
</g>
<!-- Async&#45;&gt;Socket -->
<g id="edge3" class="edge">
<title>Async&#45;&gt;Socket</title>
<path fill="none" stroke="black" d="M278,-71.7C278,-63.98 278,-54.71 278,-46.11"/>
<polygon fill="black" stroke="black" points="281.5,-46.1 278,-36.1 274.5,-46.1 281.5,-46.1"/>
</g>
<!-- Threading -->
<g id="node24" class="node">
<title>Threading</title>
<polygon fill="none" stroke="black" points="417.5,-36 328.5,-36 328.5,0 417.5,0 417.5,-36"/>
<text text-anchor="middle" x="373" y="-14.3" font-family="Times,serif" font-size="14.00">Threading</text>
</g>
<!-- Async&#45;&gt;Threading -->
<g id="edge4" class="edge">
<title>Async&#45;&gt;Threading</title>
<path fill="none" stroke="black" d="M301.48,-71.7C313.56,-62.8 328.45,-51.82 341.52,-42.2"/>
<polygon fill="black" stroke="black" points="343.81,-44.85 349.79,-36.1 339.66,-39.22 343.81,-44.85"/>
</g>
<!-- AsyncStreams -->
<g id="node2" class="node">
<title>AsyncStreams</title>
<polygon fill="none" stroke="black" points="554.5,-36 435.5,-36 435.5,0 554.5,0 554.5,-36"/>
<text text-anchor="middle" x="495" y="-14.3" font-family="Times,serif" font-size="14.00">AsyncStreams</text>
</g>
<!-- Await -->
<g id="node3" class="node">
<title>Await</title>
<polygon fill="none" stroke="black" points="306.5,-180 249.5,-180 249.5,-144 306.5,-144 306.5,-180"/>
<text text-anchor="middle" x="278" y="-158.3" font-family="Times,serif" font-size="14.00">Await</text>
</g>
<!-- Await&#45;&gt;Async -->
<g id="edge5" class="edge">
<title>Await&#45;&gt;Async</title>
<path fill="none" stroke="black" d="M278,-143.7C278,-135.98 278,-126.71 278,-118.11"/>
<polygon fill="black" stroke="black" points="281.5,-118.1 278,-108.1 274.5,-118.1 281.5,-118.1"/>
</g>
<!-- Containers -->
<g id="node4" class="node">
<title>Containers</title>
<polygon fill="none" stroke="black" points="696.5,-108 601.5,-108 601.5,-72 696.5,-72 696.5,-108"/>
<text text-anchor="middle" x="649" y="-86.3" font-family="Times,serif" font-size="14.00">Containers</text>
</g>
<!-- Memory -->
<g id="node14" class="node">
<title>Memory</title>
<polygon fill="none" stroke="black" points="687,-36 611,-36 611,0 687,0 687,-36"/>
<text text-anchor="middle" x="649" y="-14.3" font-family="Times,serif" font-size="14.00">Memory</text>
</g>
<!-- Containers&#45;&gt;Memory -->
<g id="edge6" class="edge">
<title>Containers&#45;&gt;Memory</title>
<path fill="none" stroke="black" d="M649,-71.7C649,-63.98 649,-54.71 649,-46.11"/>
<polygon fill="black" stroke="black" points="652.5,-46.1 649,-36.1 645.5,-46.1 652.5,-46.1"/>
</g>
<!-- ContainersReflection -->
<g id="node5" class="node">
<title>ContainersReflection</title>
<polygon fill="none" stroke="black" points="751,-180 585,-180 585,-144 751,-144 751,-180"/>
<text text-anchor="middle" x="668" y="-158.3" font-family="Times,serif" font-size="14.00">ContainersReflection</text>
</g>
<!-- ContainersReflection&#45;&gt;Containers -->
<g id="edge7" class="edge">
<title>ContainersReflection&#45;&gt;Containers</title>
<path fill="none" stroke="black" d="M663.3,-143.7C661.19,-135.9 658.64,-126.51 656.28,-117.83"/>
<polygon fill="black" stroke="black" points="659.64,-116.84 653.64,-108.1 652.88,-118.67 659.64,-116.84"/>
</g>
<!-- Reflection -->
<g id="node17" class="node">
<title>Reflection</title>
<polygon fill="none" stroke="black" points="874,-36 786,-36 786,0 874,0 874,-36"/>
<text text-anchor="middle" x="830" y="-14.3" font-family="Times,serif" font-size="14.00">Reflection</text>
</g>
<!-- ContainersReflection&#45;&gt;Reflection -->
<g id="edge8" class="edge">
<title>ContainersReflection&#45;&gt;Reflection</title>
<path fill="none" stroke="black" d="M688.52,-143.76C717.24,-118.23 769.55,-71.73 801.89,-42.99"/>
<polygon fill="black" stroke="black" points="804.5,-45.35 809.65,-36.09 799.85,-40.12 804.5,-45.35"/>
</g>
<!-- FileSystemIterator -->
<g id="node8" class="node">
<title>FileSystemIterator</title>
<polygon fill="none" stroke="black" points="1044,-36 892,-36 892,0 1044,0 1044,-36"/>
<text text-anchor="middle" x="968" y="-14.3" font-family="Times,serif" font-size="14.00">FileSystemIterator</text>
</g>
<!-- FileSystemWatcher -->
<g id="node9" class="node">
<title>FileSystemWatcher</title>
<polygon fill="none" stroke="black" points="1218,-36 1062,-36 1062,0 1218,0 1218,-36"/>
<text text-anchor="middle" x="1140" y="-14.3" font-family="Times,serif" font-size="14.00">FileSystemWatcher</text>
</g>
<!-- Foundation -->
<g id="node10" class="node">
<title>Foundation</title>
<polygon fill="none" stroke="black" points="1333.5,-36 1236.5,-36 1236.5,0 1333.5,0 1333.5,-36"/>
<text text-anchor="middle" x="1285" y="-14.3" font-family="Times,serif" font-size="14.00">Foundation</text>
</g>
<!-- Hashing -->
<g id="node11" class="node">
<title>Hashing</title>
<polygon fill="none" stroke="black" points="1428,-36 1352,-36 1352,0 1428,0 1428,-36"/>
<text text-anchor="middle" x="1390" y="-14.3" font-family="Times,serif" font-size="14.00">Hashing</text>
</g>
<!-- Http -->
<g id="node12" class="node">
<title>Http</title>
<polygon fill="none" stroke="black" points="502,-180 448,-180 448,-144 502,-144 502,-180"/>
<text text-anchor="middle" x="475" y="-158.3" font-family="Times,serif" font-size="14.00">Http</text>
</g>
<!-- Http&#45;&gt;Async -->
<g id="edge9" class="edge">
<title>Http&#45;&gt;Async</title>
<path fill="none" stroke="black" d="M447.61,-151.27C413.83,-139.27 356.18,-118.78 317.59,-105.07"/>
<polygon fill="black" stroke="black" points="318.33,-101.62 307.73,-101.56 315.98,-108.21 318.33,-101.62"/>
</g>
<!-- Http&#45;&gt;AsyncStreams -->
<g id="edge10" class="edge">
<title>Http&#45;&gt;AsyncStreams</title>
<path fill="none" stroke="black" d="M477.53,-143.76C480.94,-119.2 487.05,-75.25 491.06,-46.35"/>
<polygon fill="black" stroke="black" points="494.58,-46.48 492.49,-36.09 487.65,-45.51 494.58,-46.48"/>
</g>
<!-- HttpClient -->
<g id="node13" class="node">
<title>HttpClient</title>
<polygon fill="none" stroke="black" points="1538,-36 1446,-36 1446,0 1538,0 1538,-36"/>
<text text-anchor="middle" x="1492" y="-14.3" font-family="Times,serif" font-size="14.00">HttpClient</text>
</g>
<!-- Plugin -->
<g id="node15" class="node">
<title>Plugin</title>
<polygon fill="none" stroke="black" points="67,-180 5,-180 5,-144 67,-144 67,-180"/>
<text text-anchor="middle" x="36" y="-158.3" font-family="Times,serif" font-size="14.00">Plugin</text>
</g>
<!-- Process -->
<g id="node16" class="node">
<title>Process</title>
<polygon fill="none" stroke="black" points="72,-108 0,-108 0,-72 72,-72 72,-108"/>
<text text-anchor="middle" x="36" y="-86.3" font-family="Times,serif" font-size="14.00">Process</text>
</g>
<!-- Plugin&#45;&gt;Process -->
<g id="edge11" class="edge">
<title>Plugin&#45;&gt;Process</title>
<path fill="none" stroke="black" d="M36,-143.7C36,-135.98 36,-126.71 36,-118.11"/>
<polygon fill="black" stroke="black" points="39.5,-118.1 36,-108.1 32.5,-118.1 39.5,-118.1"/>
</g>
<!-- Process&#45;&gt;File -->
<g id="edge12" class="edge">
<title>Process&#45;&gt;File</title>
<path fill="none" stroke="black" d="M48.11,-71.7C53.87,-63.47 60.86,-53.48 67.21,-44.42"/>
<polygon fill="black" stroke="black" points="70.16,-46.3 73.03,-36.1 64.42,-42.29 70.16,-46.3"/>
</g>
<!-- SerialPort -->
<g id="node18" class="node">
<title>SerialPort</title>
<polygon fill="none" stroke="black" points="179.5,-108 90.5,-108 90.5,-72 179.5,-72 179.5,-108"/>
<text text-anchor="middle" x="135" y="-86.3" font-family="Times,serif" font-size="14.00">SerialPort</text>
</g>
<!-- SerialPort&#45;&gt;File -->
<g id="edge13" class="edge">
<title>SerialPort&#45;&gt;File</title>
<path fill="none" stroke="black" d="M122.64,-71.7C116.77,-63.47 109.63,-53.48 103.16,-44.42"/>
<polygon fill="black" stroke="black" points="105.88,-42.21 97.22,-36.1 100.18,-46.28 105.88,-42.21"/>
</g>
<!-- SerializationBinary -->
<g id="node19" class="node">
<title>SerializationBinary</title>
<polygon fill="none" stroke="black" points="907,-108 753,-108 753,-72 907,-72 907,-108"/>
<text text-anchor="middle" x="830" y="-86.3" font-family="Times,serif" font-size="14.00">SerializationBinary</text>
</g>
<!-- SerializationBinary&#45;&gt;Reflection -->
<g id="edge14" class="edge">
<title>SerializationBinary&#45;&gt;Reflection</title>
<path fill="none" stroke="black" d="M830,-71.7C830,-63.98 830,-54.71 830,-46.11"/>
<polygon fill="black" stroke="black" points="833.5,-46.1 830,-36.1 826.5,-46.1 833.5,-46.1"/>
</g>
<!-- SerializationText -->
<g id="node20" class="node">
<title>SerializationText</title>
<polygon fill="none" stroke="black" points="1062.5,-108 925.5,-108 925.5,-72 1062.5,-72 1062.5,-108"/>
<text text-anchor="middle" x="994" y="-86.3" font-family="Times,serif" font-size="14.00">SerializationText</text>
</g>
<!-- SerializationText&#45;&gt;Reflection -->
<g id="edge15" class="edge">
<title>SerializationText&#45;&gt;Reflection</title>
<path fill="none" stroke="black" d="M953.88,-71.88C931.36,-62.26 903.08,-50.19 879.23,-40.01"/>
<polygon fill="black" stroke="black" points="880.56,-36.77 869.99,-36.07 877.81,-43.21 880.56,-36.77"/>
</g>
<!-- Strings -->
<g id="node22" class="node">
<title>Strings</title>
<polygon fill="none" stroke="black" points="1625.5,-36 1556.5,-36 1556.5,0 1625.5,0 1625.5,-36"/>
<text text-anchor="middle" x="1591" y="-14.3" font-family="Times,serif" font-size="14.00">Strings</text>
</g>
<!-- Testing -->
<g id="node23" class="node">
<title>Testing</title>
<polygon fill="none" stroke="black" points="1712.5,-36 1643.5,-36 1643.5,0 1712.5,0 1712.5,-36"/>
<text text-anchor="middle" x="1678" y="-14.3" font-family="Times,serif" font-size="14.00">Testing</text>
</g>
<!-- Time -->
<g id="node25" class="node">
<title>Time</title>
<polygon fill="none" stroke="black" points="1785,-36 1731,-36 1731,0 1785,0 1785,-36"/>
<text text-anchor="middle" x="1758" y="-14.3" font-family="Times,serif" font-size="14.00">Time</text>
</g>
</g>
</svg>
