<?xml version="1.0" encoding="UTF-8" standalone="no"?>
<!DOCTYPE svg PUBLIC "-//W3C//DTD SVG 1.1//EN"
 "http://www.w3.org/Graphics/SVG/1.1/DTD/svg11.dtd">
<!-- Generated by graphviz version 2.43.0 (0)
 -->
<!-- Title: LibraryDependencies Pages: 1 -->
<svg width="2181pt" height="251pt"
 viewBox="0.00 0.00 2180.70 251.20" xmlns="http://www.w3.org/2000/svg" xmlns:xlink="http://www.w3.org/1999/xlink">
<g id="graph0" class="graph" transform="scale(1 1) rotate(0) translate(21.6 229.6)">
<title>LibraryDependencies</title>
<!-- Async -->
<g id="node1" class="node">
<title>Async</title>
<path fill="#e9f1ff" stroke="#7895d5" stroke-width="1.4" d="M473,-122C473,-122 433,-122 433,-122 427,-122 421,-116 421,-110 421,-110 421,-98 421,-98 421,-92 427,-86 433,-86 433,-86 473,-86 473,-86 479,-86 485,-92 485,-98 485,-98 485,-110 485,-110 485,-116 479,-122 473,-122"/>
<text text-anchor="middle" x="453" y="-100.6" font-family="Helvetica Neue" font-size="13.00" fill="#17233d">Async</text>
</g>
<!-- File -->
<g id="node8" class="node">
<title>File</title>
<path fill="#e9f1ff" stroke="#7895d5" stroke-width="1.4" d="M171,-36C171,-36 141,-36 141,-36 135,-36 129,-30 129,-24 129,-24 129,-12 129,-12 129,-6 135,0 141,0 141,0 171,0 171,0 177,0 183,-6 183,-12 183,-12 183,-24 183,-24 183,-30 177,-36 171,-36"/>
<text text-anchor="middle" x="156" y="-14.6" font-family="Helvetica Neue" font-size="13.00" fill="#17233d">File</text>
</g>
<!-- Async&#45;&gt;File -->
<g id="edge1" class="edge">
<title>Async&#45;&gt;File</title>
<path fill="none" stroke="#6b8fc9" stroke-width="1.5" d="M420.83,-94.51C352.48,-76.49 199,-36 199,-36 199,-36 195.49,-34.61 190.48,-32.63"/>
<polygon fill="#6b8fc9" stroke="#6b8fc9" stroke-width="1.5" points="191.42,-30.18 183.48,-29.86 189.49,-35.06 191.42,-30.18"/>
</g>
<!-- FileSystem -->
<g id="node9" class="node">
<title>FileSystem</title>
<path fill="#e9f1ff" stroke="#7895d5" stroke-width="1.4" d="M395,-36C395,-36 323,-36 323,-36 317,-36 311,-30 311,-24 311,-24 311,-12 311,-12 311,-6 317,0 323,0 323,0 395,0 395,0 401,0 407,-6 407,-12 407,-12 407,-24 407,-24 407,-30 401,-36 395,-36"/>
<text text-anchor="middle" x="359" y="-14.6" font-family="Helvetica Neue" font-size="13.00" fill="#17233d">FileSystem</text>
</g>
<!-- Async&#45;&gt;FileSystem -->
<g id="edge2" class="edge">
<title>Async&#45;&gt;FileSystem</title>
<path fill="none" stroke="#6b8fc9" stroke-width="1.5" d="M433.52,-85.6C419.19,-72.78 399.57,-55.26 384.07,-41.4"/>
<polygon fill="#6b8fc9" stroke="#6b8fc9" stroke-width="1.5" points="385.47,-39.14 378.13,-36.1 381.97,-43.05 385.47,-39.14"/>
</g>
<!-- Socket -->
<g id="node23" class="node">
<title>Socket</title>
<path fill="#e9f1ff" stroke="#7895d5" stroke-width="1.4" d="M496.5,-36C496.5,-36 451.5,-36 451.5,-36 445.5,-36 439.5,-30 439.5,-24 439.5,-24 439.5,-12 439.5,-12 439.5,-6 445.5,0 451.5,0 451.5,0 496.5,0 496.5,0 502.5,0 508.5,-6 508.5,-12 508.5,-12 508.5,-24 508.5,-24 508.5,-30 502.5,-36 496.5,-36"/>
<text text-anchor="middle" x="474" y="-14.6" font-family="Helvetica Neue" font-size="13.00" fill="#17233d">Socket</text>
</g>
<!-- Async&#45;&gt;Socket -->
<g id="edge3" class="edge">
<title>Async&#45;&gt;Socket</title>
<path fill="none" stroke="#6b8fc9" stroke-width="1.5" d="M457.35,-85.6C460.38,-73.46 464.47,-57.1 467.84,-43.64"/>
<polygon fill="#6b8fc9" stroke="#6b8fc9" stroke-width="1.5" points="470.45,-44.01 469.73,-36.1 465.36,-42.73 470.45,-44.01"/>
</g>
<!-- Threading -->
<g id="node26" class="node">
<title>Threading</title>
<path fill="#e9f1ff" stroke="#7895d5" stroke-width="1.4" d="M619.5,-36C619.5,-36 552.5,-36 552.5,-36 546.5,-36 540.5,-30 540.5,-24 540.5,-24 540.5,-12 540.5,-12 540.5,-6 546.5,0 552.5,0 552.5,0 619.5,0 619.5,0 625.5,0 631.5,-6 631.5,-12 631.5,-12 631.5,-24 631.5,-24 631.5,-30 625.5,-36 619.5,-36"/>
<text text-anchor="middle" x="586" y="-14.6" font-family="Helvetica Neue" font-size="13.00" fill="#17233d">Threading</text>
</g>
<!-- Async&#45;&gt;Threading -->
<g id="edge4" class="edge">
<title>Async&#45;&gt;Threading</title>
<path fill="none" stroke="#6b8fc9" stroke-width="1.5" d="M480.24,-85.8C501.12,-72.61 530.07,-54.33 552.4,-40.22"/>
<polygon fill="#6b8fc9" stroke="#6b8fc9" stroke-width="1.5" points="553.86,-42.4 558.8,-36.18 551.06,-37.96 553.86,-42.4"/>
</g>
<!-- AsyncStreams -->
<g id="node2" class="node">
<title>AsyncStreams</title>
<path fill="#e9f1ff" stroke="#7895d5" stroke-width="1.4" d="M770,-36C770,-36 676,-36 676,-36 670,-36 664,-30 664,-24 664,-24 664,-12 664,-12 664,-6 670,0 676,0 676,0 770,0 770,0 776,0 782,-6 782,-12 782,-12 782,-24 782,-24 782,-30 776,-36 770,-36"/>
<text text-anchor="middle" x="723" y="-14.6" font-family="Helvetica Neue" font-size="13.00" fill="#17233d">AsyncStreams</text>
</g>
<!-- Await -->
<g id="node3" class="node">
<title>Await</title>
<path fill="#e9f1ff" stroke="#7895d5" stroke-width="1.4" d="M471.5,-208C471.5,-208 434.5,-208 434.5,-208 428.5,-208 422.5,-202 422.5,-196 422.5,-196 422.5,-184 422.5,-184 422.5,-178 428.5,-172 434.5,-172 434.5,-172 471.5,-172 471.5,-172 477.5,-172 483.5,-178 483.5,-184 483.5,-184 483.5,-196 483.5,-196 483.5,-202 477.5,-208 471.5,-208"/>
<text text-anchor="middle" x="453" y="-186.6" font-family="Helvetica Neue" font-size="13.00" fill="#17233d">Await</text>
</g>
<!-- Await&#45;&gt;Async -->
<g id="edge5" class="edge">
<title>Await&#45;&gt;Async</title>
<path fill="none" stroke="#6b8fc9" stroke-width="1.5" d="M453,-171.6C453,-159.46 453,-143.1 453,-129.64"/>
<polygon fill="#6b8fc9" stroke="#6b8fc9" stroke-width="1.5" points="455.63,-129.6 453,-122.1 450.38,-129.6 455.63,-129.6"/>
</g>
<!-- Containers -->
<g id="node4" class="node">
<title>Containers</title>
<path fill="#e9f1ff" stroke="#7895d5" stroke-width="1.4" d="M889,-122C889,-122 817,-122 817,-122 811,-122 805,-116 805,-110 805,-110 805,-98 805,-98 805,-92 811,-86 817,-86 817,-86 889,-86 889,-86 895,-86 901,-92 901,-98 901,-98 901,-110 901,-110 901,-116 895,-122 889,-122"/>
<text text-anchor="middle" x="853" y="-100.6" font-family="Helvetica Neue" font-size="13.00" fill="#17233d">Containers</text>
</g>
<!-- Memory -->
<g id="node16" class="node">
<title>Memory</title>
<path fill="#e9f1ff" stroke="#7895d5" stroke-width="1.4" d="M880,-36C880,-36 826,-36 826,-36 820,-36 814,-30 814,-24 814,-24 814,-12 814,-12 814,-6 820,0 826,0 826,0 880,0 880,0 886,0 892,-6 892,-12 892,-12 892,-24 892,-24 892,-30 886,-36 880,-36"/>
<text text-anchor="middle" x="853" y="-14.6" font-family="Helvetica Neue" font-size="13.00" fill="#17233d">Memory</text>
</g>
<!-- Containers&#45;&gt;Memory -->
<g id="edge6" class="edge">
<title>Containers&#45;&gt;Memory</title>
<path fill="none" stroke="#6b8fc9" stroke-width="1.5" d="M853,-85.6C853,-73.46 853,-57.1 853,-43.64"/>
<polygon fill="#6b8fc9" stroke="#6b8fc9" stroke-width="1.5" points="855.63,-43.6 853,-36.1 850.38,-43.6 855.63,-43.6"/>
</g>
<!-- ContainersReflection -->
<g id="node5" class="node">
<title>ContainersReflection</title>
<path fill="#e9f1ff" stroke="#7895d5" stroke-width="1.4" d="M971,-208C971,-208 833,-208 833,-208 827,-208 821,-202 821,-196 821,-196 821,-184 821,-184 821,-178 827,-172 833,-172 833,-172 971,-172 971,-172 977,-172 983,-178 983,-184 983,-184 983,-196 983,-196 983,-202 977,-208 971,-208"/>
<text text-anchor="middle" x="902" y="-186.6" font-family="Helvetica Neue" font-size="13.00" fill="#17233d">ContainersReflection</text>
</g>
<!-- ContainersReflection&#45;&gt;Containers -->
<g id="edge7" class="edge">
<title>ContainersReflection&#45;&gt;Containers</title>
<path fill="none" stroke="#6b8fc9" stroke-width="1.5" d="M891.85,-171.6C884.64,-159.24 874.87,-142.49 866.93,-128.88"/>
<polygon fill="#6b8fc9" stroke="#6b8fc9" stroke-width="1.5" points="869.02,-127.25 862.97,-122.1 864.48,-129.9 869.02,-127.25"/>
</g>
<!-- Reflection -->
<g id="node19" class="node">
<title>Reflection</title>
<path fill="#e9f1ff" stroke="#7895d5" stroke-width="1.4" d="M1106.5,-36C1106.5,-36 1039.5,-36 1039.5,-36 1033.5,-36 1027.5,-30 1027.5,-24 1027.5,-24 1027.5,-12 1027.5,-12 1027.5,-6 1033.5,0 1039.5,0 1039.5,0 1106.5,0 1106.5,0 1112.5,0 1118.5,-6 1118.5,-12 1118.5,-12 1118.5,-24 1118.5,-24 1118.5,-30 1112.5,-36 1106.5,-36"/>
<text text-anchor="middle" x="1073" y="-14.6" font-family="Helvetica Neue" font-size="13.00" fill="#17233d">Reflection</text>
</g>
<!-- ContainersReflection&#45;&gt;Reflection -->
<g id="edge8" class="edge">
<title>ContainersReflection&#45;&gt;Reflection</title>
<path fill="none" stroke="#6b8fc9" stroke-width="1.5" d="M915.38,-171.99C938.38,-142.74 983,-86 983,-86 983,-86 1017.42,-60.38 1043.68,-40.82"/>
<polygon fill="#6b8fc9" stroke="#6b8fc9" stroke-width="1.5" points="1045.37,-42.84 1049.82,-36.25 1042.24,-38.63 1045.37,-42.84"/>
</g>
<!-- Fibers -->
<g id="node6" class="node">
<title>Fibers</title>
<path fill="#e9f1ff" stroke="#7895d5" stroke-width="1.4" d="M267,-36C267,-36 227,-36 227,-36 221,-36 215,-30 215,-24 215,-24 215,-12 215,-12 215,-6 221,0 227,0 227,0 267,0 267,0 273,0 279,-6 279,-12 279,-12 279,-24 279,-24 279,-30 273,-36 267,-36"/>
<text text-anchor="middle" x="247" y="-14.6" font-family="Helvetica Neue" font-size="13.00" fill="#17233d">Fibers</text>
</g>
<!-- FibersAsync -->
<g id="node7" class="node">
<title>FibersAsync</title>
<path fill="#e9f1ff" stroke="#7895d5" stroke-width="1.4" d="M335.5,-208C335.5,-208 256.5,-208 256.5,-208 250.5,-208 244.5,-202 244.5,-196 244.5,-196 244.5,-184 244.5,-184 244.5,-178 250.5,-172 256.5,-172 256.5,-172 335.5,-172 335.5,-172 341.5,-172 347.5,-178 347.5,-184 347.5,-184 347.5,-196 347.5,-196 347.5,-202 341.5,-208 335.5,-208"/>
<text text-anchor="middle" x="296" y="-186.6" font-family="Helvetica Neue" font-size="13.00" fill="#17233d">FibersAsync</text>
</g>
<!-- FibersAsync&#45;&gt;Async -->
<g id="edge9" class="edge">
<title>FibersAsync&#45;&gt;Async</title>
<path fill="none" stroke="#6b8fc9" stroke-width="1.5" d="M328.15,-171.8C353.1,-158.45 387.79,-139.89 414.27,-125.72"/>
<polygon fill="#6b8fc9" stroke="#6b8fc9" stroke-width="1.5" points="415.79,-127.89 421.16,-122.03 413.31,-123.26 415.79,-127.89"/>
</g>
<!-- FibersAsync&#45;&gt;Fibers -->
<g id="edge10" class="edge">
<title>FibersAsync&#45;&gt;Fibers</title>
<path fill="none" stroke="#6b8fc9" stroke-width="1.5" d="M291.03,-171.76C282.28,-141.39 264.08,-78.27 254.04,-43.42"/>
<polygon fill="#6b8fc9" stroke="#6b8fc9" stroke-width="1.5" points="256.51,-42.51 251.91,-36.03 251.46,-43.96 256.51,-42.51"/>
</g>
<!-- FileSystemIterator -->
<g id="node10" class="node">
<title>FileSystemIterator</title>
<path fill="#e9f1ff" stroke="#7895d5" stroke-width="1.4" d="M1283.5,-36C1283.5,-36 1162.5,-36 1162.5,-36 1156.5,-36 1150.5,-30 1150.5,-24 1150.5,-24 1150.5,-12 1150.5,-12 1150.5,-6 1156.5,0 1162.5,0 1162.5,0 1283.5,0 1283.5,0 1289.5,0 1295.5,-6 1295.5,-12 1295.5,-12 1295.5,-24 1295.5,-24 1295.5,-30 1289.5,-36 1283.5,-36"/>
<text text-anchor="middle" x="1223" y="-14.6" font-family="Helvetica Neue" font-size="13.00" fill="#17233d">FileSystemIterator</text>
</g>
<!-- FileSystemWatcher -->
<g id="node11" class="node">
<title>FileSystemWatcher</title>
<path fill="#e9f1ff" stroke="#7895d5" stroke-width="1.4" d="M1466.5,-36C1466.5,-36 1339.5,-36 1339.5,-36 1333.5,-36 1327.5,-30 1327.5,-24 1327.5,-24 1327.5,-12 1327.5,-12 1327.5,-6 1333.5,0 1339.5,0 1339.5,0 1466.5,0 1466.5,0 1472.5,0 1478.5,-6 1478.5,-12 1478.5,-12 1478.5,-24 1478.5,-24 1478.5,-30 1472.5,-36 1466.5,-36"/>
<text text-anchor="middle" x="1403" y="-14.6" font-family="Helvetica Neue" font-size="13.00" fill="#17233d">FileSystemWatcher</text>
</g>
<!-- Foundation -->
<g id="node12" class="node">
<title>Foundation</title>
<path fill="#e9f1ff" stroke="#7895d5" stroke-width="1.4" d="M1597,-36C1597,-36 1523,-36 1523,-36 1517,-36 1511,-30 1511,-24 1511,-24 1511,-12 1511,-12 1511,-6 1517,0 1523,0 1523,0 1597,0 1597,0 1603,0 1609,-6 1609,-12 1609,-12 1609,-24 1609,-24 1609,-30 1603,-36 1597,-36"/>
<text text-anchor="middle" x="1560" y="-14.6" font-family="Helvetica Neue" font-size="13.00" fill="#17233d">Foundation</text>
</g>
<!-- Hashing -->
<g id="node13" class="node">
<title>Hashing</title>
<path fill="#e9f1ff" stroke="#7895d5" stroke-width="1.4" d="M1707,-36C1707,-36 1653,-36 1653,-36 1647,-36 1641,-30 1641,-24 1641,-24 1641,-12 1641,-12 1641,-6 1647,0 1653,0 1653,0 1707,0 1707,0 1713,0 1719,-6 1719,-12 1719,-12 1719,-24 1719,-24 1719,-30 1713,-36 1707,-36"/>
<text text-anchor="middle" x="1680" y="-14.6" font-family="Helvetica Neue" font-size="13.00" fill="#17233d">Hashing</text>
</g>
<!-- Http -->
<g id="node14" class="node">
<title>Http</title>
<path fill="#e9f1ff" stroke="#7895d5" stroke-width="1.4" d="M648,-208C648,-208 618,-208 618,-208 612,-208 606,-202 606,-196 606,-196 606,-184 606,-184 606,-178 612,-172 618,-172 618,-172 648,-172 648,-172 654,-172 660,-178 660,-184 660,-184 660,-196 660,-196 660,-202 654,-208 648,-208"/>
<text text-anchor="middle" x="633" y="-186.6" font-family="Helvetica Neue" font-size="13.00" fill="#17233d">Http</text>
</g>
<!-- Http&#45;&gt;Async -->
<g id="edge11" class="edge">
<title>Http&#45;&gt;Async</title>
<path fill="none" stroke="#6b8fc9" stroke-width="1.5" d="M605.66,-176.24C575.45,-162.15 526.55,-139.32 492.25,-123.32"/>
<polygon fill="#6b8fc9" stroke="#6b8fc9" stroke-width="1.5" points="493.07,-120.8 485.17,-120.01 490.85,-125.56 493.07,-120.8"/>
</g>
<!-- Http&#45;&gt;AsyncStreams -->
<g id="edge12" class="edge">
<title>Http&#45;&gt;AsyncStreams</title>
<path fill="none" stroke="#6b8fc9" stroke-width="1.5" d="M642.12,-171.76C658.27,-141.27 691.9,-77.74 710.3,-42.99"/>
<polygon fill="#6b8fc9" stroke="#6b8fc9" stroke-width="1.5" points="712.8,-43.89 713.98,-36.03 708.16,-41.43 712.8,-43.89"/>
</g>
<!-- HttpClient -->
<g id="node15" class="node">
<title>HttpClient</title>
<path fill="#e9f1ff" stroke="#7895d5" stroke-width="1.4" d="M1830.5,-36C1830.5,-36 1763.5,-36 1763.5,-36 1757.5,-36 1751.5,-30 1751.5,-24 1751.5,-24 1751.5,-12 1751.5,-12 1751.5,-6 1757.5,0 1763.5,0 1763.5,0 1830.5,0 1830.5,0 1836.5,0 1842.5,-6 1842.5,-12 1842.5,-12 1842.5,-24 1842.5,-24 1842.5,-30 1836.5,-36 1830.5,-36"/>
<text text-anchor="middle" x="1797" y="-14.6" font-family="Helvetica Neue" font-size="13.00" fill="#17233d">HttpClient</text>
</g>
<!-- Plugin -->
<g id="node17" class="node">
<title>Plugin</title>
<path fill="#e9f1ff" stroke="#7895d5" stroke-width="1.4" d="M178,-208C178,-208 138,-208 138,-208 132,-208 126,-202 126,-196 126,-196 126,-184 126,-184 126,-178 132,-172 138,-172 138,-172 178,-172 178,-172 184,-172 190,-178 190,-184 190,-184 190,-196 190,-196 190,-202 184,-208 178,-208"/>
<text text-anchor="middle" x="158" y="-186.6" font-family="Helvetica Neue" font-size="13.00" fill="#17233d">Plugin</text>
</g>
<!-- Process -->
<g id="node18" class="node">
<title>Process</title>
<path fill="#e9f1ff" stroke="#7895d5" stroke-width="1.4" d="M183.5,-122C183.5,-122 132.5,-122 132.5,-122 126.5,-122 120.5,-116 120.5,-110 120.5,-110 120.5,-98 120.5,-98 120.5,-92 126.5,-86 132.5,-86 132.5,-86 183.5,-86 183.5,-86 189.5,-86 195.5,-92 195.5,-98 195.5,-98 195.5,-110 195.5,-110 195.5,-116 189.5,-122 183.5,-122"/>
<text text-anchor="middle" x="158" y="-100.6" font-family="Helvetica Neue" font-size="13.00" fill="#17233d">Process</text>
</g>
<!-- Plugin&#45;&gt;Process -->
<g id="edge13" class="edge">
<title>Plugin&#45;&gt;Process</title>
<path fill="none" stroke="#6b8fc9" stroke-width="1.5" d="M158,-171.6C158,-159.46 158,-143.1 158,-129.64"/>
<polygon fill="#6b8fc9" stroke="#6b8fc9" stroke-width="1.5" points="160.63,-129.6 158,-122.1 155.38,-129.6 160.63,-129.6"/>
</g>
<!-- Process&#45;&gt;File -->
<g id="edge14" class="edge">
<title>Process&#45;&gt;File</title>
<path fill="none" stroke="#6b8fc9" stroke-width="1.5" d="M157.59,-85.6C157.3,-73.46 156.91,-57.1 156.59,-43.64"/>
<polygon fill="#6b8fc9" stroke="#6b8fc9" stroke-width="1.5" points="159.21,-43.53 156.41,-36.1 153.96,-43.66 159.21,-43.53"/>
</g>
<!-- SerialPort -->
<g id="node20" class="node">
<title>SerialPort</title>
<path fill="#e9f1ff" stroke="#7895d5" stroke-width="1.4" d="M76,-122C76,-122 12,-122 12,-122 6,-122 0,-116 0,-110 0,-110 0,-98 0,-98 0,-92 6,-86 12,-86 12,-86 76,-86 76,-86 82,-86 88,-92 88,-98 88,-98 88,-110 88,-110 88,-116 82,-122 76,-122"/>
<text text-anchor="middle" x="44" y="-100.6" font-family="Helvetica Neue" font-size="13.00" fill="#17233d">SerialPort</text>
</g>
<!-- SerialPort&#45;&gt;File -->
<g id="edge15" class="edge">
<title>SerialPort&#45;&gt;File</title>
<path fill="none" stroke="#6b8fc9" stroke-width="1.5" d="M66.94,-85.8C84.3,-72.78 108.27,-54.8 126.97,-40.77"/>
<polygon fill="#6b8fc9" stroke="#6b8fc9" stroke-width="1.5" points="128.67,-42.78 133.1,-36.18 125.52,-38.58 128.67,-42.78"/>
</g>
<!-- SerializationBinary -->
<g id="node21" class="node">
<title>SerializationBinary</title>
<path fill="#e9f1ff" stroke="#7895d5" stroke-width="1.4" d="M1135,-122C1135,-122 1011,-122 1011,-122 1005,-122 999,-116 999,-110 999,-110 999,-98 999,-98 999,-92 1005,-86 1011,-86 1011,-86 1135,-86 1135,-86 1141,-86 1147,-92 1147,-98 1147,-98 1147,-110 1147,-110 1147,-116 1141,-122 1135,-122"/>
<text text-anchor="middle" x="1073" y="-100.6" font-family="Helvetica Neue" font-size="13.00" fill="#17233d">SerializationBinary</text>
</g>
<!-- SerializationBinary&#45;&gt;Reflection -->
<g id="edge16" class="edge">
<title>SerializationBinary&#45;&gt;Reflection</title>
<path fill="none" stroke="#6b8fc9" stroke-width="1.5" d="M1073,-85.6C1073,-73.46 1073,-57.1 1073,-43.64"/>
<polygon fill="#6b8fc9" stroke="#6b8fc9" stroke-width="1.5" points="1075.63,-43.6 1073,-36.1 1070.38,-43.6 1075.63,-43.6"/>
</g>
<!-- SerializationText -->
<g id="node22" class="node">
<title>SerializationText</title>
<path fill="#e9f1ff" stroke="#7895d5" stroke-width="1.4" d="M1300.5,-122C1300.5,-122 1191.5,-122 1191.5,-122 1185.5,-122 1179.5,-116 1179.5,-110 1179.5,-110 1179.5,-98 1179.5,-98 1179.5,-92 1185.5,-86 1191.5,-86 1191.5,-86 1300.5,-86 1300.5,-86 1306.5,-86 1312.5,-92 1312.5,-98 1312.5,-98 1312.5,-110 1312.5,-110 1312.5,-116 1306.5,-122 1300.5,-122"/>
<text text-anchor="middle" x="1246" y="-100.6" font-family="Helvetica Neue" font-size="13.00" fill="#17233d">SerializationText</text>
</g>
<!-- SerializationText&#45;&gt;Reflection -->
<g id="edge17" class="edge">
<title>SerializationText&#45;&gt;Reflection</title>
<path fill="none" stroke="#6b8fc9" stroke-width="1.5" d="M1210.57,-85.8C1182.84,-72.33 1144.2,-53.57 1114.93,-39.36"/>
<polygon fill="#6b8fc9" stroke="#6b8fc9" stroke-width="1.5" points="1115.98,-36.95 1108.08,-36.03 1113.68,-41.67 1115.98,-36.95"/>
</g>
<!-- Strings -->
<g id="node24" class="node">
<title>Strings</title>
<path fill="#e9f1ff" stroke="#7895d5" stroke-width="1.4" d="M1933,-36C1933,-36 1887,-36 1887,-36 1881,-36 1875,-30 1875,-24 1875,-24 1875,-12 1875,-12 1875,-6 1881,0 1887,0 1887,0 1933,0 1933,0 1939,0 1945,-6 1945,-12 1945,-12 1945,-24 1945,-24 1945,-30 1939,-36 1933,-36"/>
<text text-anchor="middle" x="1910" y="-14.6" font-family="Helvetica Neue" font-size="13.00" fill="#17233d">Strings</text>
</g>
<!-- Testing -->
<g id="node25" class="node">
<title>Testing</title>
<path fill="#e9f1ff" stroke="#7895d5" stroke-width="1.4" d="M2036.5,-36C2036.5,-36 1989.5,-36 1989.5,-36 1983.5,-36 1977.5,-30 1977.5,-24 1977.5,-24 1977.5,-12 1977.5,-12 1977.5,-6 1983.5,0 1989.5,0 1989.5,0 2036.5,0 2036.5,0 2042.5,0 2048.5,-6 2048.5,-12 2048.5,-12 2048.5,-24 2048.5,-24 2048.5,-30 2042.5,-36 2036.5,-36"/>
<text text-anchor="middle" x="2013" y="-14.6" font-family="Helvetica Neue" font-size="13.00" fill="#17233d">Testing</text>
</g>
<!-- Time -->
<g id="node27" class="node">
<title>Time</title>
<path fill="#e9f1ff" stroke="#7895d5" stroke-width="1.4" d="M2125.5,-36C2125.5,-36 2092.5,-36 2092.5,-36 2086.5,-36 2080.5,-30 2080.5,-24 2080.5,-24 2080.5,-12 2080.5,-12 2080.5,-6 2086.5,0 2092.5,0 2092.5,0 2125.5,0 2125.5,0 2131.5,0 2137.5,-6 2137.5,-12 2137.5,-12 2137.5,-24 2137.5,-24 2137.5,-30 2131.5,-36 2125.5,-36"/>
<text text-anchor="middle" x="2109" y="-14.6" font-family="Helvetica Neue" font-size="13.00" fill="#17233d">Time</text>
</g>
</g>
</svg>
