<?xml version="1.0" encoding="UTF-8" standalone="no"?>
<!DOCTYPE svg PUBLIC "-//W3C//DTD SVG 1.1//EN"
 "http://www.w3.org/Graphics/SVG/1.1/DTD/svg11.dtd">
<!-- Generated by graphviz version 2.43.0 (0)
 -->
<!-- Title: FibersAsyncDependencies Pages: 1 -->
<svg width="368pt" height="188pt"
 viewBox="0.00 0.00 367.50 188.00" xmlns="http://www.w3.org/2000/svg" xmlns:xlink="http://www.w3.org/1999/xlink">
<g id="graph0" class="graph" transform="scale(1 1) rotate(0) translate(4 184)">
<title>FibersAsyncDependencies</title>
<polygon fill="white" stroke="transparent" points="-4,4 -4,-184 363.5,-184 363.5,4 -4,4"/>
<!-- Async -->
<g id="node1" class="node">
<title>Async</title>
<polygon fill="none" stroke="black" points="199.5,-108 140.5,-108 140.5,-72 199.5,-72 199.5,-108"/>
<text text-anchor="middle" x="170" y="-86.3" font-family="Times,serif" font-size="14.00">Async</text>
</g>
<!-- File -->
<g id="node4" class="node">
<title>File</title>
<polygon fill="none" stroke="black" points="54,-36 0,-36 0,0 54,0 54,-36"/>
<text text-anchor="middle" x="27" y="-14.3" font-family="Times,serif" font-size="14.00">File</text>
</g>
<!-- Async&#45;&gt;File -->
<g id="edge1" class="edge">
<title>Async&#45;&gt;File</title>
<path fill="none" stroke="black" d="M140.37,-74.5C117.98,-63.54 87.14,-48.44 63.27,-36.76"/>
<polygon fill="black" stroke="black" points="64.69,-33.55 54.17,-32.3 61.62,-39.84 64.69,-33.55"/>
</g>
<!-- FileSystem -->
<g id="node5" class="node">
<title>FileSystem</title>
<polygon fill="none" stroke="black" points="169.5,-36 72.5,-36 72.5,0 169.5,0 169.5,-36"/>
<text text-anchor="middle" x="121" y="-14.3" font-family="Times,serif" font-size="14.00">FileSystem</text>
</g>
<!-- Async&#45;&gt;FileSystem -->
<g id="edge2" class="edge">
<title>Async&#45;&gt;FileSystem</title>
<path fill="none" stroke="black" d="M157.89,-71.7C152.13,-63.47 145.14,-53.48 138.79,-44.42"/>
<polygon fill="black" stroke="black" points="141.58,-42.29 132.97,-36.1 135.84,-46.3 141.58,-42.29"/>
</g>
<!-- Socket -->
<g id="node6" class="node">
<title>Socket</title>
<polygon fill="none" stroke="black" points="252.5,-36 187.5,-36 187.5,0 252.5,0 252.5,-36"/>
<text text-anchor="middle" x="220" y="-14.3" font-family="Times,serif" font-size="14.00">Socket</text>
</g>
<!-- Async&#45;&gt;Socket -->
<g id="edge3" class="edge">
<title>Async&#45;&gt;Socket</title>
<path fill="none" stroke="black" d="M182.36,-71.7C188.23,-63.47 195.37,-53.48 201.84,-44.42"/>
<polygon fill="black" stroke="black" points="204.82,-46.28 207.78,-36.1 199.12,-42.21 204.82,-46.28"/>
</g>
<!-- Threading -->
<g id="node7" class="node">
<title>Threading</title>
<polygon fill="none" stroke="black" points="359.5,-36 270.5,-36 270.5,0 359.5,0 359.5,-36"/>
<text text-anchor="middle" x="315" y="-14.3" font-family="Times,serif" font-size="14.00">Threading</text>
</g>
<!-- Async&#45;&gt;Threading -->
<g id="edge4" class="edge">
<title>Async&#45;&gt;Threading</title>
<path fill="none" stroke="black" d="M199.69,-74.67C220.08,-64.82 247.51,-51.58 270.5,-40.48"/>
<polygon fill="black" stroke="black" points="272.24,-43.53 279.72,-36.03 269.19,-37.23 272.24,-43.53"/>
</g>
<!-- Fibers -->
<g id="node2" class="node">
<title>Fibers</title>
<polygon fill="none" stroke="black" points="280,-108 218,-108 218,-72 280,-72 280,-108"/>
<text text-anchor="middle" x="249" y="-86.3" font-family="Times,serif" font-size="14.00">Fibers</text>
</g>
<!-- FibersAsync -->
<g id="node3" class="node">
<title>FibersAsync</title>
<polygon fill="none" stroke="black" points="261,-180 157,-180 157,-144 261,-144 261,-180"/>
<text text-anchor="middle" x="209" y="-158.3" font-family="Times,serif" font-size="14.00">FibersAsync</text>
</g>
<!-- FibersAsync&#45;&gt;Async -->
<g id="edge5" class="edge">
<title>FibersAsync&#45;&gt;Async</title>
<path fill="none" stroke="black" d="M199.36,-143.7C194.87,-135.64 189.44,-125.89 184.48,-116.98"/>
<polygon fill="black" stroke="black" points="187.45,-115.14 179.53,-108.1 181.34,-118.54 187.45,-115.14"/>
</g>
<!-- FibersAsync&#45;&gt;Fibers -->
<g id="edge6" class="edge">
<title>FibersAsync&#45;&gt;Fibers</title>
<path fill="none" stroke="black" d="M218.89,-143.7C223.49,-135.64 229.06,-125.89 234.15,-116.98"/>
<polygon fill="black" stroke="black" points="237.3,-118.52 239.23,-108.1 231.23,-115.05 237.3,-118.52"/>
</g>
</g>
</svg>
