<?xml version="1.0" encoding="UTF-8" standalone="no"?>
<!DOCTYPE svg PUBLIC "-//W3C//DTD SVG 1.1//EN"
 "http://www.w3.org/Graphics/SVG/1.1/DTD/svg11.dtd">
<!-- Generated by graphviz version 2.43.0 (0)
 -->
<!-- Title: PluginDependencies Pages: 1 -->
<svg width="120pt" height="259pt"
 viewBox="0.00 0.00 120.20 259.20" xmlns="http://www.w3.org/2000/svg" xmlns:xlink="http://www.w3.org/1999/xlink">
<g id="graph0" class="graph" transform="scale(1 1) rotate(0) translate(21.6 237.6)">
<title>PluginDependencies</title>
<!-- File -->
<g id="node1" class="node">
<title>File</title>
<path fill="#e9f1ff" stroke="#7895d5" stroke-width="1.4" d="M53.5,-36C53.5,-36 23.5,-36 23.5,-36 17.5,-36 11.5,-30 11.5,-24 11.5,-24 11.5,-12 11.5,-12 11.5,-6 17.5,0 23.5,0 23.5,0 53.5,0 53.5,0 59.5,0 65.5,-6 65.5,-12 65.5,-12 65.5,-24 65.5,-24 65.5,-30 59.5,-36 53.5,-36"/>
<text text-anchor="middle" x="38.5" y="-14.6" font-family="Helvetica Neue" font-size="13.00" fill="#17233d">File</text>
</g>
<!-- Plugin -->
<g id="node2" class="node">
<title>Plugin</title>
<path fill="#5158d9" stroke="#a8b0ff" stroke-width="2.2" d="M59.5,-216C59.5,-216 17.5,-216 17.5,-216 11.5,-216 5.5,-210 5.5,-204 5.5,-204 5.5,-192 5.5,-192 5.5,-186 11.5,-180 17.5,-180 17.5,-180 59.5,-180 59.5,-180 65.5,-180 71.5,-186 71.5,-192 71.5,-192 71.5,-204 71.5,-204 71.5,-210 65.5,-216 59.5,-216"/>
<text text-anchor="middle" x="38.5" y="-194.6" font-family="Helvetica Neue" font-size="13.00" fill="#ffffff">Plugin</text>
</g>
<!-- Process -->
<g id="node3" class="node">
<title>Process</title>
<path fill="#ddf8f2" stroke="#39bda7" stroke-width="1.8" d="M65,-126C65,-126 12,-126 12,-126 6,-126 0,-120 0,-114 0,-114 0,-102 0,-102 0,-96 6,-90 12,-90 12,-90 65,-90 65,-90 71,-90 77,-96 77,-102 77,-102 77,-114 77,-114 77,-120 71,-126 65,-126"/>
<text text-anchor="middle" x="38.5" y="-104.6" font-family="Helvetica Neue" font-size="13.00" fill="#17233d">Process</text>
</g>
<!-- Plugin&#45;&gt;Process -->
<g id="edge1" class="edge">
<title>Plugin&#45;&gt;Process</title>
<path fill="none" stroke="#747cf0" stroke-width="1.6" d="M38.5,-179.61C38.5,-166.63 38.5,-148.7 38.5,-134.16"/>
<polygon fill="#747cf0" stroke="#747cf0" stroke-width="1.6" points="41.23,-133.85 38.5,-126.05 35.77,-133.85 41.23,-133.85"/>
</g>
<!-- Process&#45;&gt;File -->
<g id="edge2" class="edge">
<title>Process&#45;&gt;File</title>
<path fill="none" stroke="#6b8fc9" stroke-width="1.6" d="M38.5,-89.61C38.5,-76.63 38.5,-58.7 38.5,-44.16"/>
<polygon fill="#6b8fc9" stroke="#6b8fc9" stroke-width="1.6" points="41.23,-43.85 38.5,-36.05 35.77,-43.85 41.23,-43.85"/>
</g>
</g>
</svg>
