<?xml version="1.0" encoding="UTF-8" standalone="no"?>
<!DOCTYPE svg PUBLIC "-//W3C//DTD SVG 1.1//EN"
 "http://www.w3.org/Graphics/SVG/1.1/DTD/svg11.dtd">
<!-- Generated by graphviz version 2.43.0 (0)
 -->
<!-- Title: PluginDependencies Pages: 1 -->
<svg width="168pt" height="188pt"
 viewBox="0.00 0.00 167.50 188.00" xmlns="http://www.w3.org/2000/svg" xmlns:xlink="http://www.w3.org/1999/xlink">
<g id="graph0" class="graph" transform="scale(1 1) rotate(0) translate(4 184)">
<title>PluginDependencies</title>
<polygon fill="white" stroke="transparent" points="-4,4 -4,-184 163.5,-184 163.5,4 -4,4"/>
<!-- File -->
<g id="node1" class="node">
<title>File</title>
<polygon fill="none" stroke="black" points="63,-36 9,-36 9,0 63,0 63,-36"/>
<text text-anchor="middle" x="36" y="-14.3" font-family="Times,serif" font-size="14.00">File</text>
</g>
<!-- Plugin -->
<g id="node2" class="node">
<title>Plugin</title>
<polygon fill="none" stroke="black" points="111,-180 49,-180 49,-144 111,-144 111,-180"/>
<text text-anchor="middle" x="80" y="-158.3" font-family="Times,serif" font-size="14.00">Plugin</text>
</g>
<!-- Process -->
<g id="node3" class="node">
<title>Process</title>
<polygon fill="none" stroke="black" points="72,-108 0,-108 0,-72 72,-72 72,-108"/>
<text text-anchor="middle" x="36" y="-86.3" font-family="Times,serif" font-size="14.00">Process</text>
</g>
<!-- Plugin&#45;&gt;Process -->
<g id="edge1" class="edge">
<title>Plugin&#45;&gt;Process</title>
<path fill="none" stroke="black" d="M69.12,-143.7C64.01,-135.56 57.8,-125.69 52.16,-116.7"/>
<polygon fill="black" stroke="black" points="55.04,-114.71 46.75,-108.1 49.11,-118.43 55.04,-114.71"/>
</g>
<!-- Strings -->
<g id="node4" class="node">
<title>Strings</title>
<polygon fill="none" stroke="black" points="159.5,-108 90.5,-108 90.5,-72 159.5,-72 159.5,-108"/>
<text text-anchor="middle" x="125" y="-86.3" font-family="Times,serif" font-size="14.00">Strings</text>
</g>
<!-- Plugin&#45;&gt;Strings -->
<g id="edge2" class="edge">
<title>Plugin&#45;&gt;Strings</title>
<path fill="none" stroke="black" d="M91.12,-143.7C96.36,-135.56 102.7,-125.69 108.48,-116.7"/>
<polygon fill="black" stroke="black" points="111.54,-118.41 114,-108.1 105.65,-114.62 111.54,-118.41"/>
</g>
<!-- Process&#45;&gt;File -->
<g id="edge3" class="edge">
<title>Process&#45;&gt;File</title>
<path fill="none" stroke="black" d="M36,-71.7C36,-63.98 36,-54.71 36,-46.11"/>
<polygon fill="black" stroke="black" points="39.5,-46.1 36,-36.1 32.5,-46.1 39.5,-46.1"/>
</g>
</g>
</svg>
