<?xml version="1.0" encoding="UTF-8" standalone="no"?>
<!DOCTYPE svg PUBLIC "-//W3C//DTD SVG 1.1//EN"
 "http://www.w3.org/Graphics/SVG/1.1/DTD/svg11.dtd">
<!-- Generated by graphviz version 2.43.0 (0)
 -->
<!-- Title: SerializationTextDependencies Pages: 1 -->
<svg width="184pt" height="116pt"
 viewBox="0.00 0.00 183.50 116.00" xmlns="http://www.w3.org/2000/svg" xmlns:xlink="http://www.w3.org/1999/xlink">
<g id="graph0" class="graph" transform="scale(1 1) rotate(0) translate(4 112)">
<title>SerializationTextDependencies</title>
<polygon fill="white" stroke="transparent" points="-4,4 -4,-112 179.5,-112 179.5,4 -4,4"/>
<!-- Reflection -->
<g id="node1" class="node">
<title>Reflection</title>
<polygon fill="none" stroke="black" points="88,-36 0,-36 0,0 88,0 88,-36"/>
<text text-anchor="middle" x="44" y="-14.3" font-family="Times,serif" font-size="14.00">Reflection</text>
</g>
<!-- SerializationText -->
<g id="node2" class="node">
<title>SerializationText</title>
<polygon fill="none" stroke="black" points="160.5,-108 23.5,-108 23.5,-72 160.5,-72 160.5,-108"/>
<text text-anchor="middle" x="92" y="-86.3" font-family="Times,serif" font-size="14.00">SerializationText</text>
</g>
<!-- SerializationText&#45;&gt;Reflection -->
<g id="edge1" class="edge">
<title>SerializationText&#45;&gt;Reflection</title>
<path fill="none" stroke="black" d="M80.13,-71.7C74.5,-63.47 67.65,-53.48 61.43,-44.42"/>
<polygon fill="black" stroke="black" points="64.27,-42.37 55.73,-36.1 58.5,-46.33 64.27,-42.37"/>
</g>
<!-- Strings -->
<g id="node3" class="node">
<title>Strings</title>
<polygon fill="none" stroke="black" points="175.5,-36 106.5,-36 106.5,0 175.5,0 175.5,-36"/>
<text text-anchor="middle" x="141" y="-14.3" font-family="Times,serif" font-size="14.00">Strings</text>
</g>
<!-- SerializationText&#45;&gt;Strings -->
<g id="edge2" class="edge">
<title>SerializationText&#45;&gt;Strings</title>
<path fill="none" stroke="black" d="M104.11,-71.7C109.87,-63.47 116.86,-53.48 123.21,-44.42"/>
<polygon fill="black" stroke="black" points="126.16,-46.3 129.03,-36.1 120.42,-42.29 126.16,-46.3"/>
</g>
</g>
</svg>
