<?xml version="1.0" encoding="UTF-8" standalone="no"?>
<!DOCTYPE svg PUBLIC "-//W3C//DTD SVG 1.1//EN"
 "http://www.w3.org/Graphics/SVG/1.1/DTD/svg11.dtd">
<!-- Generated by graphviz version 2.43.0 (0)
 -->
<!-- Title: SerialPortDependencies Pages: 1 -->
<svg width="133pt" height="169pt"
 viewBox="0.00 0.00 133.20 169.20" xmlns="http://www.w3.org/2000/svg" xmlns:xlink="http://www.w3.org/1999/xlink">
<g id="graph0" class="graph" transform="scale(1 1) rotate(0) translate(21.6 147.6)">
<title>SerialPortDependencies</title>
<!-- File -->
<g id="node1" class="node">
<title>File</title>
<path fill="#ddf8f2" stroke="#39bda7" stroke-width="1.8" d="M60,-36C60,-36 30,-36 30,-36 24,-36 18,-30 18,-24 18,-24 18,-12 18,-12 18,-6 24,0 30,0 30,0 60,0 60,0 66,0 72,-6 72,-12 72,-12 72,-24 72,-24 72,-30 66,-36 60,-36"/>
<text text-anchor="middle" x="45" y="-14.6" font-family="Helvetica Neue" font-size="13.00" fill="#17233d">File</text>
</g>
<!-- SerialPort -->
<g id="node2" class="node">
<title>SerialPort</title>
<path fill="#5158d9" stroke="#a8b0ff" stroke-width="2.2" d="M78,-126C78,-126 12,-126 12,-126 6,-126 0,-120 0,-114 0,-114 0,-102 0,-102 0,-96 6,-90 12,-90 12,-90 78,-90 78,-90 84,-90 90,-96 90,-102 90,-102 90,-114 90,-114 90,-120 84,-126 78,-126"/>
<text text-anchor="middle" x="45" y="-104.6" font-family="Helvetica Neue" font-size="13.00" fill="#ffffff">SerialPort</text>
</g>
<!-- SerialPort&#45;&gt;File -->
<g id="edge1" class="edge">
<title>SerialPort&#45;&gt;File</title>
<path fill="none" stroke="#747cf0" stroke-width="1.6" d="M45,-89.61C45,-76.63 45,-58.7 45,-44.16"/>
<polygon fill="#747cf0" stroke="#747cf0" stroke-width="1.6" points="47.73,-43.85 45,-36.05 42.27,-43.85 47.73,-43.85"/>
</g>
</g>
</svg>
