<?xml version="1.0" encoding="UTF-8" standalone="no"?>
<!DOCTYPE svg PUBLIC "-//W3C//DTD SVG 1.1//EN"
 "http://www.w3.org/Graphics/SVG/1.1/DTD/svg11.dtd">
<!-- Generated by graphviz version 2.43.0 (0)
 -->
<!-- Title: SerializationBinaryDependencies Pages: 1 -->
<svg width="193pt" height="169pt"
 viewBox="0.00 0.00 193.20 169.20" xmlns="http://www.w3.org/2000/svg" xmlns:xlink="http://www.w3.org/1999/xlink">
<g id="graph0" class="graph" transform="scale(1 1) rotate(0) translate(21.6 147.6)">
<title>SerializationBinaryDependencies</title>
<!-- Reflection -->
<g id="node1" class="node">
<title>Reflection</title>
<path fill="#ddf8f2" stroke="#39bda7" stroke-width="1.8" d="M109.5,-36C109.5,-36 40.5,-36 40.5,-36 34.5,-36 28.5,-30 28.5,-24 28.5,-24 28.5,-12 28.5,-12 28.5,-6 34.5,0 40.5,0 40.5,0 109.5,0 109.5,0 115.5,0 121.5,-6 121.5,-12 121.5,-12 121.5,-24 121.5,-24 121.5,-30 115.5,-36 109.5,-36"/>
<text text-anchor="middle" x="75" y="-14.6" font-family="Helvetica Neue" font-size="13.00" fill="#17233d">Reflection</text>
</g>
<!-- SerializationBinary -->
<g id="node2" class="node">
<title>SerializationBinary</title>
<path fill="#5158d9" stroke="#a8b0ff" stroke-width="2.2" d="M138,-126C138,-126 12,-126 12,-126 6,-126 0,-120 0,-114 0,-114 0,-102 0,-102 0,-96 6,-90 12,-90 12,-90 138,-90 138,-90 144,-90 150,-96 150,-102 150,-102 150,-114 150,-114 150,-120 144,-126 138,-126"/>
<text text-anchor="middle" x="75" y="-104.6" font-family="Helvetica Neue" font-size="13.00" fill="#ffffff">SerializationBinary</text>
</g>
<!-- SerializationBinary&#45;&gt;Reflection -->
<g id="edge1" class="edge">
<title>SerializationBinary&#45;&gt;Reflection</title>
<path fill="none" stroke="#747cf0" stroke-width="1.6" d="M75,-89.61C75,-76.63 75,-58.7 75,-44.16"/>
<polygon fill="#747cf0" stroke="#747cf0" stroke-width="1.6" points="77.73,-43.85 75,-36.05 72.27,-43.85 77.73,-43.85"/>
</g>
</g>
</svg>
