<?xml version="1.0" encoding="UTF-8" standalone="no"?>
<!DOCTYPE svg PUBLIC "-//W3C//DTD SVG 1.1//EN"
 "http://www.w3.org/Graphics/SVG/1.1/DTD/svg11.dtd">
<!-- Generated by graphviz version 2.43.0 (0)
 -->
<!-- Title: SerializationTextDependencies Pages: 1 -->
<svg width="178pt" height="169pt"
 viewBox="0.00 0.00 178.20 169.20" xmlns="http://www.w3.org/2000/svg" xmlns:xlink="http://www.w3.org/1999/xlink">
<g id="graph0" class="graph" transform="scale(1 1) rotate(0) translate(21.6 147.6)">
<title>SerializationTextDependencies</title>
<!-- Reflection -->
<g id="node1" class="node">
<title>Reflection</title>
<path fill="#ddf8f2" stroke="#39bda7" stroke-width="1.8" d="M102,-36C102,-36 33,-36 33,-36 27,-36 21,-30 21,-24 21,-24 21,-12 21,-12 21,-6 27,0 33,0 33,0 102,0 102,0 108,0 114,-6 114,-12 114,-12 114,-24 114,-24 114,-30 108,-36 102,-36"/>
<text text-anchor="middle" x="67.5" y="-14.6" font-family="Helvetica Neue" font-size="13.00" fill="#17233d">Reflection</text>
</g>
<!-- SerializationText -->
<g id="node2" class="node">
<title>SerializationText</title>
<path fill="#5158d9" stroke="#a8b0ff" stroke-width="2.2" d="M123,-126C123,-126 12,-126 12,-126 6,-126 0,-120 0,-114 0,-114 0,-102 0,-102 0,-96 6,-90 12,-90 12,-90 123,-90 123,-90 129,-90 135,-96 135,-102 135,-102 135,-114 135,-114 135,-120 129,-126 123,-126"/>
<text text-anchor="middle" x="67.5" y="-104.6" font-family="Helvetica Neue" font-size="13.00" fill="#ffffff">SerializationText</text>
</g>
<!-- SerializationText&#45;&gt;Reflection -->
<g id="edge1" class="edge">
<title>SerializationText&#45;&gt;Reflection</title>
<path fill="none" stroke="#747cf0" stroke-width="1.6" d="M67.5,-89.61C67.5,-76.63 67.5,-58.7 67.5,-44.16"/>
<polygon fill="#747cf0" stroke="#747cf0" stroke-width="1.6" points="70.23,-43.85 67.5,-36.05 64.77,-43.85 70.23,-43.85"/>
</g>
</g>
</svg>
